<svg width="24" height="24" viewBox="0 0 24 24" fill="none" xmlns="http://www.w3.org/2000/svg">
<path d="M18 10C18.9319 10 19.3978 10 19.7654 9.84776C20.2554 9.64477 20.6448 9.25542 20.8478 8.76537C21 8.39782 21 7.93188 21 7C21 6.06812 21 5.60218 20.8478 5.23463C20.6448 4.74458 20.2554 4.35523 19.7654 4.15224C19.3978 4 18.9319 4 18 4L10 4C9.06812 4 8.60218 4 8.23463 4.15224C7.74458 4.35523 7.35523 4.74458 7.15224 5.23463C7 5.60218 7 6.06812 7 7C7 7.93188 7 8.39782 7.15224 8.76537C7.35523 9.25542 7.74458 9.64477 8.23463 9.84776C8.60218 10 9.06812 10 10 10L18 10Z" stroke="black" stroke-width="2" stroke-linecap="round" stroke-linejoin="round"/>
<path d="M18 20C18.9319 20 19.3978 20 19.7654 19.8478C20.2554 19.6448 20.6448 19.2554 20.8478 18.7654C21 18.3978 21 17.9319 21 17C21 16.0681 21 15.6022 20.8478 15.2346C20.6448 14.7446 20.2554 14.3552 19.7654 14.1522C19.3978 14 18.9319 14 18 14H6C5.06812 14 4.60218 14 4.23463 14.1522C3.74458 14.3552 3.35523 14.7446 3.15224 15.2346C3 15.6022 3 16.0681 3 17C3 17.9319 3 18.3978 3.15224 18.7654C3.35523 19.2554 3.74458 19.6448 4.23463 19.8478C4.60218 20 5.06812 20 6 20L18 20Z" stroke="black" stroke-width="2" stroke-linecap="round" stroke-linejoin="round"/>
</svg>
