<svg width="24" height="24" viewBox="0 0 24 24" fill="none" xmlns="http://www.w3.org/2000/svg">
<path d="M4 13.9999L5.57465 20.2985C5.61893 20.4756 5.64107 20.5642 5.66727 20.6415C5.92317 21.397 6.60352 21.9282 7.39852 21.9933C7.4799 21.9999 7.5712 21.9999 7.75379 21.9999C7.98244 21.9999 8.09677 21.9999 8.19308 21.9906C9.145 21.8982 9.89834 21.1449 9.99066 20.193C10 20.0967 10 19.9823 10 19.7537V5.49991M18.5 13.4999C20.433 13.4999 22 11.9329 22 9.99991C22 8.06691 20.433 6.49991 18.5 6.49991M10.25 5.49991H6.5C4.01472 5.49991 2 7.51463 2 9.99991C2 12.4852 4.01472 14.4999 6.5 14.4999H10.25C12.0164 14.4999 14.1772 15.4468 15.8443 16.3556C16.8168 16.8857 17.3031 17.1508 17.6216 17.1118C17.9169 17.0756 18.1402 16.943 18.3133 16.701C18.5 16.4401 18.5 15.9179 18.5 14.8736V5.1262C18.5 4.08191 18.5 3.55976 18.3133 3.2988C18.1402 3.05681 17.9169 2.92421 17.6216 2.88804C17.3031 2.84903 16.8168 3.11411 15.8443 3.64427C14.1772 4.55302 12.0164 5.49991 10.25 5.49991Z" stroke="black" stroke-width="2" stroke-linecap="round" stroke-linejoin="round"/>
</svg>
