<svg width="24" height="24" viewBox="0 0 24 24" fill="none" xmlns="http://www.w3.org/2000/svg">
<path d="M8.87625 13.0953L4.70122 7.87653C4.44132 7.55166 4.31138 7.38922 4.21897 7.20834C4.13698 7.04787 4.07706 6.87705 4.04084 6.70052C4 6.50155 4 6.29354 4 5.8775V5.2C4 4.0799 4 3.51984 4.21799 3.09202C4.40973 2.71569 4.71569 2.40973 5.09202 2.21799C5.51984 2 6.0799 2 7.2 2H16.8C17.9201 2 18.4802 2 18.908 2.21799C19.2843 2.40973 19.5903 2.71569 19.782 3.09202C20 3.51984 20 4.0799 20 5.2V5.8775C20 6.29354 20 6.50155 19.9592 6.70052C19.9229 6.87705 19.863 7.04787 19.781 7.20834C19.6886 7.38922 19.5587 7.55166 19.2988 7.87652L15.1238 13.0953M5.00005 3L12.0001 12L19 3M15.5355 13.4645C17.4882 15.4171 17.4882 18.5829 15.5355 20.5355C13.5829 22.4882 10.4171 22.4882 8.46446 20.5355C6.51185 18.5829 6.51185 15.4171 8.46446 13.4645C10.4171 11.5118 13.5829 11.5118 15.5355 13.4645Z" stroke="black" stroke-width="2" stroke-linecap="round" stroke-linejoin="round"/>
</svg>
