<svg width="24" height="24" viewBox="0 0 24 24" fill="none" xmlns="http://www.w3.org/2000/svg">
<path d="M9.35419 21C10.0593 21.6224 10.9856 22 12 22C13.0145 22 13.9407 21.6224 14.6458 21M15 5H21M13 2.08389C12.6717 2.02841 12.3373 2 12 2C10.4087 2 8.8826 2.63214 7.75738 3.75736C6.63216 4.88258 6.00002 6.4087 6.00002 8C6.00002 11.0902 5.22049 13.206 4.34968 14.6054C3.61515 15.7859 3.24788 16.3761 3.26134 16.5408C3.27626 16.7231 3.31488 16.7926 3.46179 16.9016C3.59448 17 4.19261 17 5.38887 17H18.6112C19.8075 17 20.4056 17 20.5383 16.9016C20.6852 16.7926 20.7239 16.7231 20.7388 16.5407C20.7522 16.3761 20.385 15.786 19.6505 14.6057C18.877 13.3626 18.1754 11.5544 18.0283 9" stroke="black" stroke-width="2" stroke-linecap="round" stroke-linejoin="round"/>
</svg>
