<svg width="24" height="24" viewBox="0 0 24 24" fill="none" xmlns="http://www.w3.org/2000/svg">
<path d="M10.8571 7L5.14286 17M6 19H17.9998M18.8571 17L13.1429 7M3.6 21H4.4C4.96005 21 5.24008 21 5.45399 20.891C5.64215 20.7951 5.79513 20.6422 5.89101 20.454C6 20.2401 6 19.9601 6 19.4V18.6C6 18.0399 6 17.7599 5.89101 17.546C5.79513 17.3578 5.64215 17.2049 5.45399 17.109C5.24008 17 4.96005 17 4.4 17H3.6C3.03995 17 2.75992 17 2.54601 17.109C2.35785 17.2049 2.20487 17.3578 2.10899 17.546C2 17.7599 2 18.0399 2 18.6V19.4C2 19.9601 2 20.2401 2.10899 20.454C2.20487 20.6422 2.35785 20.7951 2.54601 20.891C2.75992 21 3.03995 21 3.6 21ZM19.6 21H20.4C20.9601 21 21.2401 21 21.454 20.891C21.6422 20.7951 21.7951 20.6422 21.891 20.454C22 20.2401 22 19.9601 22 19.4V18.6C22 18.0399 22 17.7599 21.891 17.546C21.7951 17.3578 21.6422 17.2049 21.454 17.109C21.2401 17 20.9601 17 20.4 17H19.6C19.0399 17 18.7599 17 18.546 17.109C18.3578 17.2049 18.2049 17.3578 18.109 17.546C18 17.7599 18 18.0399 18 18.6V19.4C18 19.9601 18 20.2401 18.109 20.454C18.2049 20.6422 18.3578 20.7951 18.546 20.891C18.7599 21 19.0399 21 19.6 21ZM11.6 7H12.4C12.9601 7 13.2401 7 13.454 6.89101C13.6422 6.79513 13.7951 6.64215 13.891 6.45399C14 6.24008 14 5.96005 14 5.4V4.6C14 4.03995 14 3.75992 13.891 3.54601C13.7951 3.35785 13.6422 3.20487 13.454 3.10899C13.2401 3 12.9601 3 12.4 3H11.6C11.0399 3 10.7599 3 10.546 3.10899C10.3578 3.20487 10.2049 3.35785 10.109 3.54601C10 3.75992 10 4.03995 10 4.6V5.4C10 5.96005 10 6.24008 10.109 6.45399C10.2049 6.64215 10.3578 6.79513 10.546 6.89101C10.7599 7 11.0399 7 11.6 7Z" stroke="black" stroke-width="2" stroke-linecap="round" stroke-linejoin="round"/>
</svg>
