<svg width="24" height="24" viewBox="0 0 24 24" fill="none" xmlns="http://www.w3.org/2000/svg">
<path d="M16 7C16 6.07003 16 5.60504 15.8978 5.22354C15.6204 4.18827 14.8117 3.37962 13.7765 3.10222C13.395 3 12.93 3 12 3C11.07 3 10.605 3 10.2235 3.10222C9.18827 3.37962 8.37962 4.18827 8.10222 5.22354C8 5.60504 8 6.07003 8 7M5.2 21H18.8C19.9201 21 20.4802 21 20.908 20.782C21.2843 20.5903 21.5903 20.2843 21.782 19.908C22 19.4802 22 18.9201 22 17.8V10.2C22 9.07989 22 8.51984 21.782 8.09202C21.5903 7.71569 21.2843 7.40973 20.908 7.21799C20.4802 7 19.9201 7 18.8 7H5.2C4.07989 7 3.51984 7 3.09202 7.21799C2.71569 7.40973 2.40973 7.71569 2.21799 8.09202C2 8.51984 2 9.07989 2 10.2V17.8C2 18.9201 2 19.4802 2.21799 19.908C2.40973 20.2843 2.71569 20.5903 3.09202 20.782C3.51984 21 4.0799 21 5.2 21Z" stroke="black" stroke-width="2" stroke-linecap="round" stroke-linejoin="round"/>
</svg>
