<svg width="24" height="24" viewBox="0 0 24 24" fill="none" xmlns="http://www.w3.org/2000/svg">
<path d="M8.99997 11.2224L12.7778 15.0002M7.97485 20.975C6.60801 22.3419 4 22.0002 2 22.0002C3.0251 20.0002 1.65827 17.3921 3.0251 16.0253C4.39194 14.6585 6.60801 14.6585 7.97485 16.0253C9.34168 17.3921 9.34168 19.6082 7.97485 20.975ZM11.9216 15.9248L21.0587 6.05671C21.8635 5.18755 21.8375 3.83776 20.9999 3.00017C20.1624 2.16258 18.8126 2.13663 17.9434 2.94141L8.07534 12.0785C7.5654 12.5507 7.31043 12.7868 7.16173 13.0385C6.80514 13.6423 6.79079 14.3887 7.12391 15.0057C7.26283 15.2631 7.50853 15.5088 7.99995 16.0002C8.49136 16.4916 8.73707 16.7373 8.99438 16.8762C9.6114 17.2093 10.3578 17.195 10.9616 16.8384C11.2134 16.6897 11.4494 16.4347 11.9216 15.9248Z" stroke="black" stroke-width="2" stroke-linecap="round" stroke-linejoin="round"/>
</svg>
