<svg width="24" height="24" viewBox="0 0 24 24" fill="none" xmlns="http://www.w3.org/2000/svg">
<path d="M20 10V3.6C20 3.03995 20 2.75992 19.891 2.54601C19.7951 2.35785 19.6422 2.20487 19.454 2.10899C19.2401 2 18.9601 2 18.4 2H5.6C5.03995 2 4.75992 2 4.54601 2.10899C4.35785 2.20487 4.20487 2.35785 4.10899 2.54601C4 2.75992 4 3.03995 4 3.6V10M20 10H4M20 10V10.2C20 11.8802 20 12.7202 19.673 13.362C19.3854 13.9265 18.9265 14.3854 18.362 14.673C17.7202 15 16.8802 15 15.2 15H8.8C7.11984 15 6.27976 15 5.63803 14.673C5.07354 14.3854 4.6146 13.9265 4.32698 13.362C4 12.7202 4 11.8802 4 10.2V10M14.5 15V19.5C14.5 20.8807 13.3807 22 12 22C10.6193 22 9.5 20.8807 9.5 19.5V15" stroke="black" stroke-width="2" stroke-linecap="round" stroke-linejoin="round"/>
</svg>
