<svg width="24" height="24" viewBox="0 0 24 24" fill="none" xmlns="http://www.w3.org/2000/svg">
<path d="M15 21V15.6C15 15.0399 15 14.7599 14.891 14.546C14.7951 14.3578 14.6422 14.2049 14.454 14.109C14.2401 14 13.9601 14 13.4 14H10.6C10.0399 14 9.75992 14 9.54601 14.109C9.35785 14.2049 9.20487 14.3578 9.10899 14.546C9 14.7599 9 15.0399 9 15.6V21M3 7C3 8.65685 4.34315 10 6 10C7.65685 10 9 8.65685 9 7C9 8.65685 10.3431 10 12 10C13.6569 10 15 8.65685 15 7C15 8.65685 16.3431 10 18 10C19.6569 10 21 8.65685 21 7M6.2 21H17.8C18.9201 21 19.4802 21 19.908 20.782C20.2843 20.5903 20.5903 20.2843 20.782 19.908C21 19.4802 21 18.9201 21 17.8V6.2C21 5.0799 21 4.51984 20.782 4.09202C20.5903 3.71569 20.2843 3.40973 19.908 3.21799C19.4802 3 18.9201 3 17.8 3H6.2C5.0799 3 4.51984 3 4.09202 3.21799C3.71569 3.40973 3.40973 3.71569 3.21799 4.09202C3 4.51984 3 5.07989 3 6.2V17.8C3 18.9201 3 19.4802 3.21799 19.908C3.40973 20.2843 3.71569 20.5903 4.09202 20.782C4.51984 21 5.07989 21 6.2 21Z" stroke="black" stroke-width="2" stroke-linecap="round" stroke-linejoin="round"/>
</svg>
