<svg width="24" height="24" viewBox="0 0 24 24" fill="none" xmlns="http://www.w3.org/2000/svg">
<path d="M7.5 11H4.6C4.03995 11 3.75992 11 3.54601 11.109C3.35785 11.2049 3.20487 11.3578 3.10899 11.546C3 11.7599 3 12.0399 3 12.6V21M16.5 11H19.4C19.9601 11 20.2401 11 20.454 11.109C20.6422 11.2049 20.7951 11.3578 20.891 11.546C21 11.7599 21 12.0399 21 12.6V21M16.5 21V6.2C16.5 5.0799 16.5 4.51984 16.282 4.09202C16.0903 3.71569 15.7843 3.40973 15.408 3.21799C14.9802 3 14.4201 3 13.3 3H10.7C9.57989 3 9.01984 3 8.59202 3.21799C8.21569 3.40973 7.90973 3.71569 7.71799 4.09202C7.5 4.51984 7.5 5.0799 7.5 6.2V21M22 21H2M11 7H13M11 11H13M11 15H13" stroke="black" stroke-width="2" stroke-linecap="round" stroke-linejoin="round"/>
</svg>
