<svg width="24" height="24" viewBox="0 0 24 24" fill="none" xmlns="http://www.w3.org/2000/svg">
<path d="M10.5 1.5V3.1M3.6 10H2M5.4512 4.95137L4.31982 3.82M15.5498 4.95137L16.6812 3.82M19 10H17.4M6.50007 10.0001C6.50007 7.79093 8.29093 6.00007 10.5001 6.00007C12.0061 6.00007 13.3177 6.83235 14.0001 8.06206M6 22C3.79086 22 2 20.2091 2 18C2 15.7909 3.79086 14 6 14C6.46419 14 6.90991 14.0791 7.32442 14.2245C8.04061 12.3396 9.86387 11 12 11C14.1361 11 15.9594 12.3396 16.6756 14.2245C17.0901 14.0791 17.5358 14 18 14C20.2091 14 22 15.7909 22 18C22 20.2091 20.2091 22 18 22C13.3597 22 9.87921 22 6 22Z" stroke="black" stroke-width="2" stroke-linecap="round" stroke-linejoin="round"/>
</svg>
