<svg width="24" height="24" viewBox="0 0 24 24" fill="none" xmlns="http://www.w3.org/2000/svg">
<path d="M13 5C13 6.10457 10.5376 7 7.5 7C4.46243 7 2 6.10457 2 5M13 5C13 3.89543 10.5376 3 7.5 3C4.46243 3 2 3.89543 2 5M13 5V6.5M2 5V17C2 18.1046 4.46243 19 7.5 19M7.5 11C7.33145 11 7.16468 10.9972 7 10.9918C4.19675 10.9 2 10.0433 2 9M7.5 15C4.46243 15 2 14.1046 2 13M22 11.5C22 12.6046 19.5376 13.5 16.5 13.5C13.4624 13.5 11 12.6046 11 11.5M22 11.5C22 10.3954 19.5376 9.5 16.5 9.5C13.4624 9.5 11 10.3954 11 11.5M22 11.5V19C22 20.1046 19.5376 21 16.5 21C13.4624 21 11 20.1046 11 19V11.5M22 15.25C22 16.3546 19.5376 17.25 16.5 17.25C13.4624 17.25 11 16.3546 11 15.25" stroke="black" stroke-width="2" stroke-linecap="round" stroke-linejoin="round"/>
</svg>
