<svg width="24" height="24" viewBox="0 0 24 24" fill="none" xmlns="http://www.w3.org/2000/svg">
<path d="M13 5C13 6.10457 10.5376 7 7.5 7C4.46243 7 2 6.10457 2 5M13 5C13 3.89543 10.5376 3 7.5 3C4.46243 3 2 3.89543 2 5M13 5V9.45715C11.7785 9.82398 11 10.3789 11 11M2 5V17C2 18.1046 4.46243 19 7.5 19C8.82963 19 10.0491 18.8284 11 18.5429V11M2 9C2 10.1046 4.46243 11 7.5 11C8.82963 11 10.0491 10.8284 11 10.5429M2 13C2 14.1046 4.46243 15 7.5 15C8.82963 15 10.0491 14.8284 11 14.5429M22 11C22 12.1046 19.5376 13 16.5 13C13.4624 13 11 12.1046 11 11M22 11C22 9.89543 19.5376 9 16.5 9C13.4624 9 11 9.89543 11 11M22 11V19C22 20.1046 19.5376 21 16.5 21C13.4624 21 11 20.1046 11 19V11M22 15C22 16.1046 19.5376 17 16.5 17C13.4624 17 11 16.1046 11 15" stroke="black" stroke-width="2" stroke-linecap="round" stroke-linejoin="round"/>
</svg>
