<svg width="24" height="24" viewBox="0 0 24 24" fill="none" xmlns="http://www.w3.org/2000/svg">
<path d="M9 17L12 20M12 20L15 17M12 20V13M22 9H2M5.5 18H5.2C4.0799 18 3.51984 18 3.09202 17.782C2.71569 17.5903 2.40973 17.2843 2.21799 16.908C2 16.4802 2 15.9201 2 14.8V7.2C2 6.0799 2 5.51984 2.21799 5.09202C2.40973 4.71569 2.7157 4.40973 3.09202 4.21799C3.51984 4 4.0799 4 5.2 4H18.8C19.9201 4 20.4802 4 20.908 4.21799C21.2843 4.40974 21.5903 4.7157 21.782 5.09202C22 5.51984 22 6.0799 22 7.2V14.8C22 15.9201 22 16.4802 21.782 16.908C21.5903 17.2843 21.2843 17.5903 20.908 17.782C20.4802 18 19.9201 18 18.8 18H18.5" stroke="black" stroke-width="2" stroke-linecap="round" stroke-linejoin="round"/>
</svg>
