<svg width="24" height="24" viewBox="0 0 24 24" fill="none" xmlns="http://www.w3.org/2000/svg">
<path d="M14 20C14 21.1046 13.1046 22 12 22C10.8954 22 10 21.1046 10 20M14 20C14 18.8954 13.1046 18 12 18M14 20H21M10 20C10 18.8954 10.8954 18 12 18M10 20H3M12 18V14M21 5C21 6.65685 16.9706 8 12 8C7.02944 8 3 6.65685 3 5M21 5C21 3.34315 16.9706 2 12 2C7.02944 2 3 3.34315 3 5M21 5V11C21 12.66 17 14 12 14M3 5V11C3 12.66 7 14 12 14" stroke="black" stroke-width="2" stroke-linecap="round" stroke-linejoin="round"/>
</svg>
