<svg width="24" height="24" viewBox="0 0 24 24" fill="none" xmlns="http://www.w3.org/2000/svg">
<path d="M21 5L10 5M21 19L10 19M21 12L10 12M6 5C6 5.82843 5.32843 6.5 4.5 6.5C3.67157 6.5 3 5.82843 3 5C3 4.17157 3.67157 3.5 4.5 3.5C5.32843 3.5 6 4.17157 6 5ZM6 19C6 19.8284 5.32843 20.5 4.5 20.5C3.67157 20.5 3 19.8284 3 19C3 18.1716 3.67157 17.5 4.5 17.5C5.32843 17.5 6 18.1716 6 19ZM6 12C6 12.8284 5.32843 13.5 4.5 13.5C3.67157 13.5 3 12.8284 3 12C3 11.1716 3.67157 10.5 4.5 10.5C5.32843 10.5 6 11.1716 6 12Z" stroke="black" stroke-width="2" stroke-linecap="round" stroke-linejoin="round"/>
</svg>
