<svg width="24" height="24" viewBox="0 0 24 24" fill="none" xmlns="http://www.w3.org/2000/svg">
<path d="M2.87601 18.1156C2.92195 17.7021 2.94493 17.4954 3.00748 17.3022C3.06298 17.1307 3.1414 16.9676 3.24061 16.8171C3.35242 16.6475 3.49952 16.5005 3.7937 16.2063L17 3C18.1046 1.89543 19.8954 1.89543 21 3C22.1046 4.10457 22.1046 5.89543 21 7L7.7937 20.2063C7.49951 20.5005 7.35242 20.6475 7.18286 20.7594C7.03242 20.8586 6.86926 20.937 6.69782 20.9925C6.50457 21.055 6.29783 21.078 5.88434 21.124L2.49997 21.5L2.87601 18.1156Z" stroke="black" stroke-width="2" stroke-linecap="round" stroke-linejoin="round"/>
</svg>
