<svg width="24" height="24" viewBox="0 0 24 24" fill="none" xmlns="http://www.w3.org/2000/svg">
<path d="M13 16.437C13 17.567 13 18.1321 13.2283 18.4091C13.4266 18.6497 13.7258 18.7841 14.0374 18.7724C14.3961 18.759 14.8184 18.3836 15.663 17.6329L20.6547 13.1958C21.12 12.7822 21.3526 12.5754 21.4383 12.3312C21.5136 12.1168 21.5136 11.8831 21.4383 11.6687C21.3526 11.4245 21.12 11.2177 20.6547 10.8041L15.663 6.36706C14.8184 5.61631 14.3961 5.24093 14.0374 5.22751C13.7258 5.21584 13.4266 5.35021 13.2283 5.59086C13 5.86787 13 6.43288 13 7.56291V16.437Z" stroke="black" stroke-width="2" stroke-linecap="round" stroke-linejoin="round"/>
<path d="M2 16.437C2 17.567 2 18.1321 2.22827 18.4091C2.42657 18.6497 2.72579 18.7841 3.0374 18.7724C3.39609 18.759 3.81839 18.3836 4.66298 17.6329L9.65466 13.1958C10.12 12.7822 10.3526 12.5754 10.4383 12.3312C10.5136 12.1168 10.5136 11.8831 10.4383 11.6687C10.3526 11.4245 10.12 11.2177 9.65466 10.8041L4.66298 6.36706C3.81839 5.61631 3.39609 5.24093 3.0374 5.22751C2.72579 5.21584 2.42657 5.35021 2.22827 5.59086C2 5.86787 2 6.43288 2 7.56291V16.437Z" stroke="black" stroke-width="2" stroke-linecap="round" stroke-linejoin="round"/>
</svg>
