<svg width="24" height="24" viewBox="0 0 24 24" fill="none" xmlns="http://www.w3.org/2000/svg">
<path d="M16 8.00007L2 22.0001M18 15.0001H9M6.6 19.0001H13.3373C13.5818 19.0001 13.7041 19.0001 13.8192 18.9724C13.9213 18.9479 14.0188 18.9075 14.1083 18.8527C14.2092 18.7909 14.2957 18.7044 14.4686 18.5314L19.5 13.5001C19.739 13.2611 19.8584 13.1416 19.9546 13.0358C22.0348 10.7474 22.0348 7.25275 19.9546 4.9643C19.8584 4.85851 19.739 4.73903 19.5 4.50007C19.261 4.26111 19.1416 4.14163 19.0358 4.04547C16.7473 1.96531 13.2527 1.96531 10.9642 4.04547C10.8584 4.14163 10.739 4.26111 10.5 4.50007L5.46863 9.53144C5.29568 9.70439 5.2092 9.79087 5.14736 9.89179C5.09253 9.98126 5.05213 10.0788 5.02763 10.1808C5 10.2959 5 10.4182 5 10.6628V17.4001C5 17.9601 5 18.2401 5.10899 18.4541C5.20487 18.6422 5.35785 18.7952 5.54601 18.8911C5.75992 19.0001 6.03995 19.0001 6.6 19.0001Z" stroke="black" stroke-width="2" stroke-linecap="round" stroke-linejoin="round"/>
</svg>
