<svg width="24" height="24" viewBox="0 0 24 24" fill="none" xmlns="http://www.w3.org/2000/svg">
<path d="M20 10V6.8C20 5.11984 20 4.27976 19.673 3.63803C19.3854 3.07354 18.9265 2.6146 18.362 2.32698C17.7202 2 16.8802 2 15.2 2H8.8C7.11984 2 6.27976 2 5.63803 2.32698C5.07354 2.6146 4.6146 3.07354 4.32698 3.63803C4 4.27976 4 5.11984 4 6.8V17.2C4 18.8802 4 19.7202 4.32698 20.362C4.6146 20.9265 5.07354 21.3854 5.63803 21.673C6.27976 22 7.11984 22 8.8 22H12M12.5 11H8M9 15H8M16 7H8M16.9973 14.8306C16.1975 13.9216 14.8639 13.6771 13.8619 14.5094C12.8599 15.3418 12.7188 16.7335 13.5057 17.7179C14.2926 18.7024 16.9973 21 16.9973 21C16.9973 21 19.7019 18.7024 20.4888 17.7179C21.2757 16.7335 21.1519 15.3331 20.1326 14.5094C19.1134 13.6858 17.797 13.9216 16.9973 14.8306Z" stroke="black" stroke-width="2" stroke-linecap="round" stroke-linejoin="round"/>
</svg>
