<svg width="24" height="24" viewBox="0 0 24 24" fill="none" xmlns="http://www.w3.org/2000/svg">
<path d="M20 9.5V6.8C20 5.11984 20 4.27976 19.673 3.63803C19.3854 3.07354 18.9265 2.6146 18.362 2.32698C17.7202 2 16.8802 2 15.2 2H8.8C7.11984 2 6.27976 2 5.63803 2.32698C5.07354 2.6146 4.6146 3.07354 4.32698 3.63803C4 4.27976 4 5.11984 4 6.8V17.2C4 18.8802 4 19.7202 4.32698 20.362C4.6146 20.9265 5.07354 21.3854 5.63803 21.673C6.27976 22 7.11984 22 8.8 22H14M14 11H8M10 15H8M16 7H8M16.5 15.0022C16.6762 14.5014 17.024 14.079 17.4817 13.81C17.9395 13.5409 18.4777 13.4426 19.001 13.5324C19.5243 13.6221 19.999 13.8942 20.3409 14.3004C20.6829 14.7066 20.87 15.2207 20.8692 15.7517C20.8692 17.2506 18.6209 18 18.6209 18M18.6499 21H18.6599" stroke="black" stroke-width="2" stroke-linecap="round" stroke-linejoin="round"/>
</svg>
