<svg width="24" height="24" viewBox="0 0 24 24" fill="none" xmlns="http://www.w3.org/2000/svg">
<path d="M14.1111 6.72217H20.1404C20.5877 6.72217 20.8114 6.72217 20.9422 6.81621C21.0563 6.89826 21.1306 7.02456 21.1469 7.16416C21.1656 7.32417 21.057 7.51967 20.8398 7.91068L19.3702 10.5559C19.2914 10.6977 19.252 10.7686 19.2366 10.8437C19.2229 10.9101 19.2229 10.9787 19.2366 11.0451C19.252 11.1202 19.2914 11.1911 19.3702 11.3329L20.8398 13.9781C21.057 14.3691 21.1656 14.5646 21.1469 14.7246C21.1306 14.8642 21.0563 14.9905 20.9422 15.0726C20.8114 15.1666 20.5877 15.1666 20.1404 15.1666H12.5445C11.9844 15.1666 11.7044 15.1666 11.4905 15.0576C11.3023 14.9617 11.1493 14.8088 11.0535 14.6206C10.9445 14.4067 10.9445 14.1267 10.9445 13.5666V10.9444M7.25004 21.5002L3.02782 4.61133M4.6112 10.9444H12.5112C13.0712 10.9444 13.3512 10.9444 13.5651 10.8355C13.7533 10.7396 13.9063 10.5866 14.0022 10.3984C14.1112 10.1845 14.1112 9.9045 14.1112 9.34445V4.1C14.1112 3.53995 14.1112 3.25992 14.0022 3.04601C13.9063 2.85785 13.7533 2.70487 13.5651 2.60899C13.3512 2.5 13.0712 2.5 12.5112 2.5H4.54927C3.85075 2.5 3.50149 2.5 3.2626 2.64474C3.05323 2.77159 2.89767 2.97084 2.82538 3.20472C2.74291 3.47158 2.82762 3.81041 2.99704 4.48807L4.6112 10.9444Z" stroke="black" stroke-width="2" stroke-linecap="round" stroke-linejoin="round"/>
</svg>
