<svg width="24" height="24" viewBox="0 0 24 24" fill="none" xmlns="http://www.w3.org/2000/svg">
<path d="M13 7L11.8845 4.76892C11.5634 4.1268 11.4029 3.80573 11.1634 3.57116C10.9516 3.36373 10.6963 3.20597 10.4161 3.10931C10.0992 3 9.74021 3 9.02229 3H5.2C4.0799 3 3.51984 3 3.09202 3.21799C2.71569 3.40973 2.40973 3.71569 2.21799 4.09202C2 4.51984 2 5.0799 2 6.2V7M2 7H17.2C18.8802 7 19.7202 7 20.362 7.32698C20.9265 7.6146 21.3854 8.07354 21.673 8.63803C22 9.27976 22 10.1198 22 11.8V16.2C22 17.8802 22 18.7202 21.673 19.362C21.3854 19.9265 20.9265 20.3854 20.362 20.673C19.7202 21 18.8802 21 17.2 21H6.8C5.11984 21 4.27976 21 3.63803 20.673C3.07354 20.3854 2.6146 19.9265 2.32698 19.362C2 18.7202 2 17.8802 2 16.2V7ZM10.1 17.5H13.9C14.4601 17.5 14.7401 17.5 14.954 17.391C15.1422 17.2951 15.2951 17.1422 15.391 16.954C15.5 16.7401 15.5 16.4601 15.5 15.9V15.1C15.5 14.5399 15.5 14.2599 15.391 14.046C15.2951 13.8578 15.1422 13.7049 14.954 13.609C14.7401 13.5 14.4601 13.5 13.9 13.5H10.1C9.53995 13.5 9.25992 13.5 9.04601 13.609C8.85785 13.7049 8.70487 13.8578 8.60899 14.046C8.5 14.2599 8.5 14.5399 8.5 15.1V15.9C8.5 16.4601 8.5 16.7401 8.60899 16.954C8.70487 17.1422 8.85785 17.2951 9.04601 17.391C9.25992 17.5 9.53995 17.5 10.1 17.5ZM13.75 13.5V11.75C13.75 10.7835 12.9665 10 12 10C11.0335 10 10.25 10.7835 10.25 11.75V13.5H13.75Z" stroke="black" stroke-width="2" stroke-linecap="round" stroke-linejoin="round"/>
</svg>
