<svg width="24" height="24" viewBox="0 0 24 24" fill="none" xmlns="http://www.w3.org/2000/svg">
<path d="M15 2.4578C14.053 2.16035 13.0452 2 12 2C6.47715 2 2 6.47715 2 12C2 17.5228 6.47715 22 12 22C17.5228 22 22 17.5228 22 12C22 10.2847 21.5681 8.67022 20.8071 7.25945M17 5.75H17.005M10.5001 21.8883L10.5002 19.6849C10.5002 19.5656 10.5429 19.4502 10.6205 19.3596L13.1063 16.4594C13.3106 16.2211 13.2473 15.8556 12.9748 15.6999L10.1185 14.0677C10.0409 14.0234 9.97663 13.9591 9.93234 13.8814L8.07046 10.6186C7.97356 10.4488 7.78657 10.3511 7.59183 10.3684L2.06418 10.8607M21 6C21 8.20914 19 10 17 12C15 10 13 8.20914 13 6C13 3.79086 14.7909 2 17 2C19.2091 2 21 3.79086 21 6ZM17.25 5.75C17.25 5.88807 17.1381 6 17 6C16.8619 6 16.75 5.88807 16.75 5.75C16.75 5.61193 16.8619 5.5 17 5.5C17.1381 5.5 17.25 5.61193 17.25 5.75Z" stroke="black" stroke-width="2" stroke-linecap="round" stroke-linejoin="round"/>
</svg>
