<svg width="24" height="24" viewBox="0 0 24 24" fill="none" xmlns="http://www.w3.org/2000/svg">
<path d="M17 14.5001V11.4945C17 11.315 17 11.2253 16.9727 11.146C16.9485 11.076 16.9091 11.0122 16.8572 10.9592C16.7986 10.8993 16.7183 10.8592 16.5578 10.779L12 8.50006M4 9.50006V16.3067C4 16.6786 4 16.8645 4.05802 17.0274C4.10931 17.1713 4.1929 17.3016 4.30238 17.4082C4.42622 17.5287 4.59527 17.6062 4.93335 17.7612L11.3334 20.6945C11.5786 20.8069 11.7012 20.8631 11.8289 20.8853C11.9421 20.9049 12.0579 20.9049 12.1711 20.8853C12.2988 20.8631 12.4214 20.8069 12.6666 20.6945L19.0666 17.7612C19.4047 17.6062 19.5738 17.5287 19.6976 17.4082C19.8071 17.3016 19.8907 17.1713 19.942 17.0274C20 16.8645 20 16.6786 20 16.3067V9.50006M2 8.50006L11.6422 3.67895C11.7734 3.61336 11.839 3.58056 11.9078 3.56766C11.9687 3.55622 12.0313 3.55622 12.0922 3.56766C12.161 3.58056 12.2266 3.61336 12.3578 3.67895L22 8.50006L12.3578 13.3212C12.2266 13.3868 12.161 13.4196 12.0922 13.4325C12.0313 13.4439 11.9687 13.4439 11.9078 13.4325C11.839 13.4196 11.7734 13.3868 11.6422 13.3212L2 8.50006Z" stroke="black" stroke-width="2" stroke-linecap="round" stroke-linejoin="round"/>
</svg>
