<svg width="24" height="24" viewBox="0 0 24 24" fill="none" xmlns="http://www.w3.org/2000/svg">
<path d="M12 22C17.5228 22 22 17.5228 22 12C22 6.47715 17.5228 2 12 2C6.47715 2 2 6.47715 2 12C2 17.5228 6.47715 22 12 22Z" stroke="black" stroke-width="2" stroke-linecap="round" stroke-linejoin="round"/>
<path fill-rule="evenodd" clip-rule="evenodd" d="M11.9966 9.06791C10.9969 7.8992 9.32987 7.58482 8.07735 8.65501C6.82482 9.72519 6.64848 11.5145 7.6321 12.7802C8.26211 13.5909 9.87558 15.0942 10.9542 16.0704C11.3127 16.3947 11.4919 16.5569 11.7066 16.622C11.8911 16.6779 12.102 16.6779 12.2866 16.622C12.5012 16.5569 12.6805 16.3947 13.0389 16.0704C14.1176 15.0942 15.731 13.5909 16.3611 12.7802C17.3447 11.5145 17.1899 9.71393 15.9158 8.65501C14.6417 7.59608 12.9963 7.8992 11.9966 9.06791Z" stroke="black" stroke-width="2" stroke-linecap="round" stroke-linejoin="round"/>
</svg>
