<svg width="24" height="24" viewBox="0 0 24 24" fill="none" xmlns="http://www.w3.org/2000/svg">
<path d="M9 21V13.6C9 13.0399 9 12.7599 9.109 12.546C9.20487 12.3578 9.35785 12.2049 9.54601 12.109C9.75993 12 10.04 12 10.6 12H13.4C13.9601 12 14.2401 12 14.454 12.109C14.6422 12.2049 14.7951 12.3578 14.891 12.546C15 12.7599 15 13.0399 15 13.6V21M2 9.5L11.04 2.72C11.3843 2.46181 11.5564 2.33271 11.7454 2.28294C11.9123 2.23902 12.0877 2.23902 12.2546 2.28295C12.4436 2.33271 12.6157 2.46181 12.96 2.72L22 9.5M4 8V17.8C4 18.9201 4 19.4802 4.21799 19.908C4.40974 20.2843 4.7157 20.5903 5.09202 20.782C5.51985 21 6.0799 21 7.2 21H16.8C17.9201 21 18.4802 21 18.908 20.782C19.2843 20.5903 19.5903 20.2843 19.782 19.908C20 19.4802 20 18.9201 20 17.8V8L13.92 3.44C13.2315 2.92361 12.8872 2.66542 12.5091 2.56589C12.1754 2.47804 11.8246 2.47804 11.4909 2.56589C11.1128 2.66542 10.7685 2.92361 10.08 3.44L4 8Z" stroke="black" stroke-width="2" stroke-linecap="round" stroke-linejoin="round"/>
</svg>
