<svg width="24" height="24" viewBox="0 0 24 24" fill="none" xmlns="http://www.w3.org/2000/svg">
<path d="M12 16C13.6569 16 15 14.6568 15 13C15 11.3431 13.6569 9.99998 12 9.99998C10.3431 9.99998 9 11.3431 9 13C9 14.6568 10.3431 16 12 16Z" stroke="black" stroke-width="2" stroke-linecap="round" stroke-linejoin="round"/>
<path d="M3 10.5651C3 9.9907 3 9.70352 3.07403 9.43905C3.1396 9.20478 3.24737 8.98444 3.39203 8.78886C3.55534 8.56806 3.78202 8.39175 4.23539 8.03912L11.0177 2.764C11.369 2.49075 11.5447 2.35412 11.7387 2.3016C11.9098 2.25526 12.0902 2.25526 12.2613 2.3016C12.4553 2.35412 12.631 2.49075 12.9823 2.764L19.7646 8.03913C20.218 8.39175 20.4447 8.56806 20.608 8.78886C20.7526 8.98444 20.8604 9.20478 20.926 9.43905C21 9.70352 21 9.9907 21 10.5651V17.8C21 18.9201 21 19.4801 20.782 19.908C20.5903 20.2843 20.2843 20.5903 19.908 20.782C19.4802 21 18.9201 21 17.8 21H6.2C5.07989 21 4.51984 21 4.09202 20.782C3.71569 20.5903 3.40973 20.2843 3.21799 19.908C3 19.4801 3 18.9201 3 17.8V10.5651Z" stroke="black" stroke-width="2" stroke-linecap="round" stroke-linejoin="round"/>
</svg>
