<svg width="24" height="24" viewBox="0 0 24 24" fill="none" xmlns="http://www.w3.org/2000/svg">
<path d="M9 18.5H15M6.6 2H17.4C17.9601 2 18.2401 2 18.454 2.10899C18.6422 2.20487 18.7951 2.35785 18.891 2.54601C19 2.75992 19 3.03995 19 3.6V5.67452C19 6.1637 19 6.40829 18.9447 6.63846C18.8957 6.84254 18.8149 7.03763 18.7053 7.21657C18.5816 7.4184 18.4086 7.59135 18.0627 7.93726L15.1314 10.8686C14.7354 11.2646 14.5373 11.4627 14.4632 11.691C14.3979 11.8918 14.3979 12.1082 14.4632 12.309C14.5373 12.5373 14.7354 12.7354 15.1314 13.1314L18.0627 16.0627C18.4086 16.4086 18.5816 16.5816 18.7053 16.7834C18.8149 16.9624 18.8957 17.1575 18.9447 17.3615C19 17.5917 19 17.8363 19 18.3255V20.4C19 20.9601 19 21.2401 18.891 21.454C18.7951 21.6422 18.6422 21.7951 18.454 21.891C18.2401 22 17.9601 22 17.4 22H6.6C6.03995 22 5.75992 22 5.54601 21.891C5.35785 21.7951 5.20487 21.6422 5.10899 21.454C5 21.2401 5 20.9601 5 20.4V18.3255C5 17.8363 5 17.5917 5.05526 17.3615C5.10425 17.1575 5.18506 16.9624 5.29472 16.7834C5.4184 16.5816 5.59135 16.4086 5.93726 16.0627L8.86863 13.1314C9.26465 12.7354 9.46265 12.5373 9.53684 12.309C9.6021 12.1082 9.6021 11.8918 9.53684 11.691C9.46266 11.4627 9.26464 11.2646 8.86863 10.8686L5.93726 7.93726C5.59136 7.59136 5.4184 7.4184 5.29472 7.21657C5.18506 7.03763 5.10425 6.84254 5.05526 6.63846C5 6.40829 5 6.1637 5 5.67452V3.6C5 3.03995 5 2.75992 5.10899 2.54601C5.20487 2.35785 5.35785 2.20487 5.54601 2.10899C5.75992 2 6.03995 2 6.6 2Z" stroke="black" stroke-width="2" stroke-linecap="round" stroke-linejoin="round"/>
</svg>
