<svg width="24" height="24" viewBox="0 0 24 24" fill="none" xmlns="http://www.w3.org/2000/svg">
<path d="M12 12L7.72711 8.43926C7.09226 7.91022 6.77484 7.6457 6.54664 7.32144C6.34444 7.03413 6.19429 6.71354 6.10301 6.37428C6 5.99139 6 5.57819 6 4.7518V2M12 12L16.2729 8.43926C16.9077 7.91022 17.2252 7.6457 17.4534 7.32144C17.6556 7.03413 17.8057 6.71354 17.897 6.37428C18 5.99139 18 5.57819 18 4.7518V2M12 12L7.72711 15.5607C7.09226 16.0898 6.77484 16.3543 6.54664 16.6786C6.34444 16.9659 6.19429 17.2865 6.10301 17.6257C6 18.0086 6 18.4218 6 19.2482V22M12 12L16.2729 15.5607C16.9077 16.0898 17.2252 16.3543 17.4534 16.6786C17.6556 16.9659 17.8057 17.2865 17.897 17.6257C18 18.0086 18 18.4218 18 19.2482V22M4 2H20M4 22H20" stroke="black" stroke-width="2" stroke-linecap="round" stroke-linejoin="round"/>
</svg>
