<svg width="24" height="24" viewBox="0 0 24 24" fill="none" xmlns="http://www.w3.org/2000/svg">
<path d="M21 16V7.2C21 6.0799 21 5.51984 20.782 5.09202C20.5903 4.71569 20.2843 4.40973 19.908 4.21799C19.4802 4 18.9201 4 17.8 4H6.2C5.07989 4 4.51984 4 4.09202 4.21799C3.71569 4.40973 3.40973 4.71569 3.21799 5.09202C3 5.51984 3 6.0799 3 7.2V16M4.66667 20H19.3333C19.9533 20 20.2633 20 20.5176 19.9319C21.2078 19.7469 21.7469 19.2078 21.9319 18.5176C22 18.2633 22 17.9533 22 17.3333C22 17.0233 22 16.8683 21.9659 16.7412C21.8735 16.3961 21.6039 16.1265 21.2588 16.0341C21.1317 16 20.9767 16 20.6667 16H3.33333C3.02334 16 2.86835 16 2.74118 16.0341C2.39609 16.1265 2.12654 16.3961 2.03407 16.7412C2 16.8683 2 17.0233 2 17.3333C2 17.9533 2 18.2633 2.06815 18.5176C2.25308 19.2078 2.79218 19.7469 3.48236 19.9319C3.73669 20 4.04669 20 4.66667 20Z" stroke="black" stroke-width="2" stroke-linecap="round" stroke-linejoin="round"/>
</svg>
