<svg width="24" height="24" viewBox="0 0 24 24" fill="none" xmlns="http://www.w3.org/2000/svg">
<path d="M3 16V7.2C3 6.07989 3 5.51984 3.21799 5.09202C3.40973 4.71569 3.71569 4.40973 4.09202 4.21799C4.51984 4 5.0799 4 6.2 4H17.8C18.9201 4 19.4802 4 19.908 4.21799C20.2843 4.40973 20.5903 4.71569 20.782 5.09202C21 5.51984 21 6.0799 21 7.2V16H15.6627C15.4182 16 15.2959 16 15.1808 16.0276C15.0787 16.0521 14.9812 16.0925 14.8917 16.1474C14.7908 16.2092 14.7043 16.2957 14.5314 16.4686L14.4686 16.5314C14.2957 16.7043 14.2092 16.7908 14.1083 16.8526C14.0188 16.9075 13.9213 16.9479 13.8192 16.9724C13.7041 17 13.5818 17 13.3373 17H10.6627C10.4182 17 10.2959 17 10.1808 16.9724C10.0787 16.9479 9.98119 16.9075 9.89172 16.8526C9.7908 16.7908 9.70432 16.7043 9.53137 16.5314L9.46863 16.4686C9.29568 16.2957 9.2092 16.2092 9.10828 16.1474C9.01881 16.0925 8.92127 16.0521 8.81923 16.0276C8.70414 16 8.58185 16 8.33726 16H3ZM3 16C2.44772 16 2 16.4477 2 17V17.3333C2 17.9533 2 18.2633 2.06815 18.5176C2.25308 19.2078 2.79218 19.7469 3.48236 19.9319C3.7367 20 4.04669 20 4.66667 20H19.3333C19.9533 20 20.2633 20 20.5176 19.9319C21.2078 19.7469 21.7469 19.2078 21.9319 18.5176C22 18.2633 22 17.9533 22 17.3333C22 17.0233 22 16.8683 21.9659 16.7412C21.8735 16.3961 21.6039 16.1265 21.2588 16.0341C21.1317 16 20.9767 16 20.6667 16H20" stroke="black" stroke-width="2" stroke-linecap="round" stroke-linejoin="round"/>
</svg>
