<svg width="24" height="24" viewBox="0 0 24 24" fill="none" xmlns="http://www.w3.org/2000/svg">
<path d="M16.2 21C17.8802 21 18.7202 21 19.362 20.673C19.9265 20.3854 20.3854 19.9265 20.673 19.362C21 18.7202 21 17.8802 21 16.2V7.8C21 6.11984 21 5.27977 20.673 4.63803C20.3854 4.07354 19.9265 3.6146 19.362 3.32698C18.7202 3 17.8802 3 16.2 3L7.8 3C6.11984 3 5.27976 3 4.63803 3.32698C4.07354 3.6146 3.6146 4.07354 3.32698 4.63803C3 5.27976 3 6.11984 3 7.8L3 16.2C3 17.8802 3 18.7202 3.32698 19.362C3.6146 19.9265 4.07354 20.3854 4.63803 20.673C5.27976 21 6.11984 21 7.8 21H16.2Z" stroke="black" stroke-width="2" stroke-linecap="round" stroke-linejoin="round"/>
<path d="M13.7316 13.1947C13.661 12.9831 13.6257 12.8772 13.6276 12.7907C13.6295 12.6996 13.6417 12.6519 13.6836 12.5711C13.7235 12.4942 13.83 12.395 14.0432 12.1967C14.6318 11.6489 15 10.8675 15 10C15 8.34315 13.6569 7 12 7C10.3431 7 9 8.34315 9 10C9 10.8675 9.36818 11.649 9.95681 12.1967C10.17 12.395 10.2765 12.4942 10.3164 12.5711C10.3583 12.6519 10.3705 12.6996 10.3724 12.7907C10.3743 12.8772 10.339 12.9831 10.2684 13.1947L9.35099 15.947C9.23249 16.3025 9.17324 16.4803 9.20877 16.6218C9.23987 16.7456 9.31718 16.8529 9.42484 16.9216C9.54783 17 9.7352 17 10.1099 17H13.8901C14.2648 17 14.4522 17 14.5752 16.9216C14.6828 16.8529 14.7601 16.7456 14.7912 16.6218C14.8268 16.4803 14.7675 16.3025 14.649 15.947L13.7316 13.1947Z" stroke="black" stroke-width="2" stroke-linecap="round" stroke-linejoin="round"/>
</svg>
