<svg width="24" height="24" viewBox="0 0 24 24" fill="none" xmlns="http://www.w3.org/2000/svg">
<path d="M16 7C16 6.07003 16 5.60504 15.8978 5.22354C15.6204 4.18827 14.8117 3.37962 13.7765 3.10222C13.395 3 12.93 3 12 3C11.07 3 10.605 3 10.2235 3.10222C9.18827 3.37962 8.37962 4.18827 8.10222 5.22354C8 5.60504 8 6.07003 8 7M12.8 17.5H17.7C17.98 17.5 18.12 17.5 18.227 17.4455C18.3211 17.3976 18.3976 17.3211 18.4455 17.227C18.5 17.12 18.5 16.98 18.5 16.7V14.3C18.5 14.02 18.5 13.88 18.4455 13.773C18.3976 13.6789 18.3211 13.6024 18.227 13.5545C18.12 13.5 17.98 13.5 17.7 13.5H12.8C12.52 13.5 12.38 13.5 12.273 13.5545C12.1789 13.6024 12.1024 13.6789 12.0545 13.773C12 13.88 12 14.02 12 14.3V16.7C12 16.98 12 17.12 12.0545 17.227C12.1024 17.3211 12.1789 17.3976 12.273 17.4455C12.38 17.5 12.52 17.5 12.8 17.5ZM6.8 21H17.2C18.8802 21 19.7202 21 20.362 20.673C20.9265 20.3854 21.3854 19.9265 21.673 19.362C22 18.7202 22 17.8802 22 16.2V11.8C22 10.1198 22 9.27976 21.673 8.63803C21.3854 8.07354 20.9265 7.6146 20.362 7.32698C19.7202 7 18.8802 7 17.2 7H6.8C5.11984 7 4.27976 7 3.63803 7.32698C3.07354 7.6146 2.6146 8.07354 2.32698 8.63803C2 9.27976 2 10.1198 2 11.8V16.2C2 17.8802 2 18.7202 2.32698 19.362C2.6146 19.9265 3.07354 20.3854 3.63803 20.673C4.27976 21 5.11984 21 6.8 21Z" stroke="black" stroke-width="2" stroke-linecap="round" stroke-linejoin="round"/>
</svg>
