<svg width="24" height="24" viewBox="0 0 24 24" fill="none" xmlns="http://www.w3.org/2000/svg">
<path d="M3 7.8C3 6.11984 3 5.27976 3.32698 4.63803C3.6146 4.07354 4.07354 3.6146 4.63803 3.32698C5.27976 3 6.11984 3 7.8 3H16.2C17.8802 3 18.7202 3 19.362 3.32698C19.9265 3.6146 20.3854 4.07354 20.673 4.63803C21 5.27976 21 6.11984 21 7.8V16.2C21 17.8802 21 18.7202 20.673 19.362C20.3854 19.9265 19.9265 20.3854 19.362 20.673C18.7202 21 17.8802 21 16.2 21H7.8C6.11984 21 5.27976 21 4.63803 20.673C4.07354 20.3854 3.6146 19.9265 3.32698 19.362C3 18.7202 3 17.8802 3 16.2V7.8Z" stroke="black" stroke-width="2" stroke-linecap="round" stroke-linejoin="round"/>
<path d="M13.8333 7.3C13.8333 7.01997 13.8333 6.87996 13.7788 6.773C13.7309 6.67892 13.6544 6.60243 13.5603 6.5545C13.4534 6.5 13.3134 6.5 13.0333 6.5H10.9667C10.6866 6.5 10.5466 6.5 10.4397 6.5545C10.3456 6.60243 10.2691 6.67892 10.2212 6.773C10.1667 6.87996 10.1667 7.01997 10.1667 7.3V9.36667C10.1667 9.64669 10.1667 9.78671 10.1122 9.89366C10.0642 9.98774 9.98774 10.0642 9.89366 10.1122C9.78671 10.1667 9.64669 10.1667 9.36667 10.1667H7.3C7.01997 10.1667 6.87996 10.1667 6.773 10.2212C6.67892 10.2691 6.60243 10.3456 6.5545 10.4397C6.5 10.5466 6.5 10.6866 6.5 10.9667V13.0333C6.5 13.3134 6.5 13.4534 6.5545 13.5603C6.60243 13.6544 6.67892 13.7309 6.773 13.7788C6.87996 13.8333 7.01997 13.8333 7.3 13.8333H9.36667C9.64669 13.8333 9.78671 13.8333 9.89366 13.8878C9.98774 13.9358 10.0642 14.0123 10.1122 14.1063C10.1667 14.2133 10.1667 14.3533 10.1667 14.6333V16.7C10.1667 16.98 10.1667 17.12 10.2212 17.227C10.2691 17.3211 10.3456 17.3976 10.4397 17.4455C10.5466 17.5 10.6866 17.5 10.9667 17.5H13.0333C13.3134 17.5 13.4534 17.5 13.5603 17.4455C13.6544 17.3976 13.7309 17.3211 13.7788 17.227C13.8333 17.12 13.8333 16.98 13.8333 16.7V14.6333C13.8333 14.3533 13.8333 14.2133 13.8878 14.1063C13.9358 14.0123 14.0123 13.9358 14.1063 13.8878C14.2133 13.8333 14.3533 13.8333 14.6333 13.8333H16.7C16.98 13.8333 17.12 13.8333 17.227 13.7788C17.3211 13.7309 17.3976 13.6544 17.4455 13.5603C17.5 13.4534 17.5 13.3134 17.5 13.0333V10.9667C17.5 10.6866 17.5 10.5466 17.4455 10.4397C17.3976 10.3456 17.3211 10.2691 17.227 10.2212C17.12 10.1667 16.98 10.1667 16.7 10.1667H14.6333C14.3533 10.1667 14.2133 10.1667 14.1063 10.1122C14.0123 10.0642 13.9358 9.98774 13.8878 9.89366C13.8333 9.78671 13.8333 9.64669 13.8333 9.36667V7.3Z" stroke="black" stroke-width="2" stroke-linecap="round" stroke-linejoin="round"/>
</svg>
