<svg width="24" height="24" viewBox="0 0 24 24" fill="none" xmlns="http://www.w3.org/2000/svg">
<path d="M15 4.6C15 4.03995 15 3.75992 14.891 3.54601C14.7951 3.35785 14.6422 3.20487 14.454 3.10899C14.2401 3 13.9601 3 13.4 3H10.6C10.0399 3 9.75992 3 9.54601 3.10899C9.35785 3.20487 9.20487 3.35785 9.10899 3.54601C9 3.75992 9 4.03995 9 4.6V7.4C9 7.96005 9 8.24008 8.89101 8.45399C8.79513 8.64215 8.64215 8.79513 8.45399 8.89101C8.24008 9 7.96005 9 7.4 9H4.6C4.03995 9 3.75992 9 3.54601 9.10899C3.35785 9.20487 3.20487 9.35785 3.10899 9.54601C3 9.75992 3 10.0399 3 10.6V13.4C3 13.9601 3 14.2401 3.10899 14.454C3.20487 14.6422 3.35785 14.7951 3.54601 14.891C3.75992 15 4.03995 15 4.6 15H7.4C7.96005 15 8.24008 15 8.45399 15.109C8.64215 15.2049 8.79513 15.3578 8.89101 15.546C9 15.7599 9 16.0399 9 16.6V19.4C9 19.9601 9 20.2401 9.10899 20.454C9.20487 20.6422 9.35785 20.7951 9.54601 20.891C9.75992 21 10.0399 21 10.6 21H13.4C13.9601 21 14.2401 21 14.454 20.891C14.6422 20.7951 14.7951 20.6422 14.891 20.454C15 20.2401 15 19.9601 15 19.4V16.6C15 16.0399 15 15.7599 15.109 15.546C15.2049 15.3578 15.3578 15.2049 15.546 15.109C15.7599 15 16.0399 15 16.6 15H19.4C19.9601 15 20.2401 15 20.454 14.891C20.6422 14.7951 20.7951 14.6422 20.891 14.454C21 14.2401 21 13.9601 21 13.4V10.6C21 10.0399 21 9.75992 20.891 9.54601C20.7951 9.35785 20.6422 9.20487 20.454 9.10899C20.2401 9 19.9601 9 19.4 9L16.6 9C16.0399 9 15.7599 9 15.546 8.89101C15.3578 8.79513 15.2049 8.64215 15.109 8.45399C15 8.24008 15 7.96005 15 7.4V4.6Z" stroke="black" stroke-width="2" stroke-linecap="round" stroke-linejoin="round"/>
</svg>
