<svg width="24" height="24" viewBox="0 0 24 24" fill="none" xmlns="http://www.w3.org/2000/svg">
<path d="M2 14L22 14M8 21H16M6.8 18H17.2C18.8802 18 19.7202 18 20.362 17.673C20.9265 17.3854 21.3854 16.9265 21.673 16.362C22 15.7202 22 14.8802 22 13.2V7.8C22 6.11984 22 5.27976 21.673 4.63803C21.3854 4.07354 20.9265 3.6146 20.362 3.32698C19.7202 3 18.8802 3 17.2 3H6.8C5.11984 3 4.27976 3 3.63803 3.32698C3.07354 3.6146 2.6146 4.07354 2.32698 4.63803C2 5.27976 2 6.11984 2 7.8V13.2C2 14.8802 2 15.7202 2.32698 16.362C2.6146 16.9265 3.07354 17.3854 3.63803 17.673C4.27976 18 5.11984 18 6.8 18Z" stroke="black" stroke-width="2" stroke-linecap="round" stroke-linejoin="round"/>
</svg>
