<svg width="24" height="24" viewBox="0 0 24 24" fill="none" xmlns="http://www.w3.org/2000/svg">
<path d="M7.39137 2.46863C7.56432 2.29568 7.6508 2.2092 7.75172 2.14736C7.84119 2.09253 7.93873 2.05213 8.04077 2.02763C8.15586 2 8.27815 2 8.52274 2H15.4773C15.7218 2 15.8441 2 15.9592 2.02763C16.0613 2.05213 16.1588 2.09253 16.2483 2.14736C16.3492 2.2092 16.4357 2.29568 16.6086 2.46863L21.5314 7.39137C21.7043 7.56432 21.7908 7.6508 21.8526 7.75172C21.9075 7.84119 21.9479 7.93873 21.9724 8.04077C22 8.15586 22 8.27815 22 8.52274V15.4773C22 15.7218 22 15.8441 21.9724 15.9592C21.9479 16.0613 21.9075 16.1588 21.8526 16.2483C21.7908 16.3492 21.7043 16.4357 21.5314 16.6086L16.6086 21.5314C16.4357 21.7043 16.3492 21.7908 16.2483 21.8526C16.1588 21.9075 16.0613 21.9479 15.9592 21.9724C15.8441 22 15.7218 22 15.4773 22H8.52274C8.27815 22 8.15586 22 8.04077 21.9724C7.93873 21.9479 7.84119 21.9075 7.75172 21.8526C7.6508 21.7908 7.56432 21.7043 7.39137 21.5314L2.46863 16.6086C2.29568 16.4357 2.2092 16.3492 2.14736 16.2483C2.09253 16.1588 2.05213 16.0613 2.02763 15.9592C2 15.8441 2 15.7218 2 15.4773V8.52274C2 8.27815 2 8.15586 2.02763 8.04077C2.05213 7.93873 2.09253 7.84119 2.14736 7.75172C2.2092 7.6508 2.29568 7.56432 2.46863 7.39137L7.39137 2.46863Z" stroke="black" stroke-width="2" stroke-linecap="round" stroke-linejoin="round"/>
</svg>
