<svg width="24" height="24" viewBox="0 0 24 24" fill="none" xmlns="http://www.w3.org/2000/svg">
<path d="M12 12H12.005M17 12H17.005M7 12H7.005M5.2 7H18.8C19.9201 7 20.4802 7 20.908 7.21799C21.2843 7.40973 21.5903 7.71569 21.782 8.09202C22 8.51984 22 9.0799 22 10.2V13.8C22 14.9201 22 15.4802 21.782 15.908C21.5903 16.2843 21.2843 16.5903 20.908 16.782C20.4802 17 19.9201 17 18.8 17H5.2C4.0799 17 3.51984 17 3.09202 16.782C2.71569 16.5903 2.40973 16.2843 2.21799 15.908C2 15.4802 2 14.9201 2 13.8V10.2C2 9.0799 2 8.51984 2.21799 8.09202C2.40973 7.71569 2.71569 7.40973 3.09202 7.21799C3.51984 7 4.0799 7 5.2 7ZM12.25 12C12.25 12.1381 12.1381 12.25 12 12.25C11.8619 12.25 11.75 12.1381 11.75 12C11.75 11.8619 11.8619 11.75 12 11.75C12.1381 11.75 12.25 11.8619 12.25 12ZM17.25 12C17.25 12.1381 17.1381 12.25 17 12.25C16.8619 12.25 16.75 12.1381 16.75 12C16.75 11.8619 16.8619 11.75 17 11.75C17.1381 11.75 17.25 11.8619 17.25 12ZM7.25 12C7.25 12.1381 7.13807 12.25 7 12.25C6.86193 12.25 6.75 12.1381 6.75 12C6.75 11.8619 6.86193 11.75 7 11.75C7.13807 11.75 7.25 11.8619 7.25 12Z" stroke="black" stroke-width="2" stroke-linecap="round" stroke-linejoin="round"/>
</svg>
