<svg width="24" height="24" viewBox="0 0 24 24" fill="none" xmlns="http://www.w3.org/2000/svg">
<path d="M18 13L16.7004 6.50182C16.6278 6.13883 16.5915 5.95733 16.5032 5.80953C16.4252 5.67886 16.3183 5.56773 16.1908 5.4846C16.0466 5.39057 15.8667 5.34714 15.5069 5.26028L2 2M2 2L5.26028 15.5069C5.34714 15.8667 5.39057 16.0466 5.4846 16.1908C5.56773 16.3183 5.67886 16.4252 5.80953 16.5032C5.95733 16.5915 6.13883 16.6278 6.50182 16.7004L13 18M2 2L9.586 9.586M16.1314 20.8686L20.8686 16.1314C21.2646 15.7354 21.4627 15.5373 21.5368 15.309C21.6021 15.1082 21.6021 14.8918 21.5368 14.691C21.4627 14.4627 21.2646 14.2646 20.8686 13.8686L20.1314 13.1314C19.7354 12.7354 19.5373 12.5373 19.309 12.4632C19.1082 12.3979 18.8918 12.3979 18.691 12.4632C18.4627 12.5373 18.2646 12.7354 17.8686 13.1314L13.1314 17.8686C12.7354 18.2646 12.5373 18.4627 12.4632 18.691C12.3979 18.8918 12.3979 19.1082 12.4632 19.309C12.5373 19.5373 12.7354 19.7354 13.1314 20.1314L13.8686 20.8686C14.2646 21.2646 14.4627 21.4627 14.691 21.5368C14.8918 21.6021 15.1082 21.6021 15.309 21.5368C15.5373 21.4627 15.7354 21.2646 16.1314 20.8686ZM13 11C13 12.1046 12.1046 13 11 13C9.89543 13 9 12.1046 9 11C9 9.89543 9.89543 9 11 9C12.1046 9 13 9.89543 13 11Z" stroke="black" stroke-width="2" stroke-linecap="round" stroke-linejoin="round"/>
</svg>
