<svg width="24" height="24" viewBox="0 0 24 24" fill="none" xmlns="http://www.w3.org/2000/svg">
<path d="M13 5.99985L6.50182 7.29948C6.13883 7.37208 5.95733 7.40838 5.80952 7.49665C5.67886 7.57469 5.56772 7.68152 5.4846 7.80901C5.39057 7.95321 5.34714 8.13314 5.26028 8.49299L2 21.9998M2 21.9998L15.5069 18.7396C15.8667 18.6527 16.0466 18.6093 16.1908 18.5153C16.3183 18.4321 16.4252 18.321 16.5032 18.1903C16.5915 18.0425 16.6278 17.861 16.7004 17.498L18 10.9998M2 21.9998L9.586 14.4138M20.8686 7.86848L16.1314 3.13122C15.7354 2.7352 15.5373 2.53719 15.309 2.46301C15.1082 2.39775 14.8918 2.39775 14.691 2.46301C14.4627 2.53719 14.2646 2.7352 13.8686 3.13122L13.1314 3.86848C12.7354 4.2645 12.5373 4.4625 12.4632 4.69083C12.3979 4.89168 12.3979 5.10802 12.4632 5.30887C12.5373 5.53719 12.7354 5.7352 13.1314 6.13122L17.8686 10.8685C18.2646 11.2645 18.4627 11.4625 18.691 11.5367C18.8918 11.6019 19.1082 11.6019 19.309 11.5367C19.5373 11.4625 19.7354 11.2645 20.1314 10.8685L20.8686 10.1312C21.2646 9.7352 21.4627 9.53719 21.5368 9.30887C21.6021 9.10802 21.6021 8.89168 21.5368 8.69083C21.4627 8.4625 21.2646 8.2645 20.8686 7.86848ZM11 10.9998C12.1046 10.9998 13 11.8953 13 12.9998C13 14.1044 12.1046 14.9998 11 14.9998C9.89543 14.9998 9 14.1044 9 12.9998C9 11.8953 9.89543 10.9998 11 10.9998Z" stroke="black" stroke-width="2" stroke-linecap="round" stroke-linejoin="round"/>
</svg>
