<svg width="24" height="24" viewBox="0 0 24 24" fill="none" xmlns="http://www.w3.org/2000/svg">
<path d="M12 17.5H12.01M8.2 22H15.8C16.9201 22 17.4802 22 17.908 21.782C18.2843 21.5903 18.5903 21.2843 18.782 20.908C19 20.4802 19 19.9201 19 18.8V5.2C19 4.07989 19 3.51984 18.782 3.09202C18.5903 2.71569 18.2843 2.40973 17.908 2.21799C17.4802 2 16.9201 2 15.8 2H8.2C7.0799 2 6.51984 2 6.09202 2.21799C5.71569 2.40973 5.40973 2.71569 5.21799 3.09202C5 3.51984 5 4.0799 5 5.2V18.8C5 19.9201 5 20.4802 5.21799 20.908C5.40973 21.2843 5.71569 21.5903 6.09202 21.782C6.51984 22 7.07989 22 8.2 22ZM12.5 17.5C12.5 17.7761 12.2761 18 12 18C11.7239 18 11.5 17.7761 11.5 17.5C11.5 17.2239 11.7239 17 12 17C12.2761 17 12.5 17.2239 12.5 17.5Z" stroke="black" stroke-width="2" stroke-linecap="round" stroke-linejoin="round"/>
</svg>
