<svg width="24" height="24" viewBox="0 0 24 24" fill="none" xmlns="http://www.w3.org/2000/svg">
<path d="M15 2V3.4C15 3.96005 15 4.24008 14.891 4.45399C14.7951 4.64215 14.6422 4.79513 14.454 4.89101C14.2401 5 13.9601 5 13.4 5H10.6C10.0399 5 9.75992 5 9.54601 4.89101C9.35785 4.79513 9.20487 4.64215 9.10899 4.45399C9 4.24008 9 3.96005 9 3.4V2M8.2 22H15.8C16.9201 22 17.4802 22 17.908 21.782C18.2843 21.5903 18.5903 21.2843 18.782 20.908C19 20.4802 19 19.9201 19 18.8V5.2C19 4.07989 19 3.51984 18.782 3.09202C18.5903 2.71569 18.2843 2.40973 17.908 2.21799C17.4802 2 16.9201 2 15.8 2H8.2C7.0799 2 6.51984 2 6.09202 2.21799C5.71569 2.40973 5.40973 2.71569 5.21799 3.09202C5 3.51984 5 4.0799 5 5.2V18.8C5 19.9201 5 20.4802 5.21799 20.908C5.40973 21.2843 5.71569 21.5903 6.09202 21.782C6.51984 22 7.07989 22 8.2 22Z" stroke="black" stroke-width="2" stroke-linecap="round" stroke-linejoin="round"/>
</svg>
