<svg width="24" height="24" viewBox="0 0 24 24" fill="none" xmlns="http://www.w3.org/2000/svg">
<path d="M17.2 14C17.477 14 17.6155 14 17.7278 14.0615C17.8204 14.1122 17.9065 14.2075 17.9478 14.3047C17.9978 14.4225 17.9852 14.5479 17.96 14.7987C17.8296 16.0987 17.3822 17.3514 16.6518 18.4445C15.7727 19.7601 14.5233 20.7855 13.0615 21.391C11.5997 21.9965 9.99113 22.155 8.43928 21.8463C6.88743 21.5376 5.46197 20.7757 4.34315 19.6568C3.22433 18.538 2.4624 17.1126 2.15372 15.5607C1.84504 14.0089 2.00347 12.4003 2.60897 10.9385C3.21447 9.47671 4.23985 8.22728 5.55544 7.34823C6.64856 6.61783 7.90125 6.17039 9.20131 6.03995C9.45207 6.01479 9.57745 6.00221 9.69528 6.0522C9.79249 6.09344 9.88776 6.17964 9.9385 6.27224C10 6.38449 10 6.52299 10 6.79999V13.2C10 13.48 10 13.62 10.0545 13.727C10.1024 13.8211 10.1789 13.8976 10.273 13.9455C10.38 14 10.52 14 10.8 14H17.2Z" stroke="black" stroke-width="2" stroke-linecap="round" stroke-linejoin="round"/>
<path d="M14 2.79999C14 2.52298 14 2.38448 14.0615 2.27223C14.1122 2.17963 14.2075 2.09344 14.3047 2.0522C14.4225 2.0022 14.5479 2.01478 14.7987 2.03993C16.6271 2.22333 18.346 3.03229 19.6569 4.34313C20.9677 5.65398 21.7767 7.37289 21.9601 9.20129C21.9852 9.45206 21.9978 9.57744 21.9478 9.69527C21.9066 9.79248 21.8204 9.88774 21.7278 9.93848C21.6155 9.99998 21.477 9.99999 21.2 9.99999L14.8 9.99999C14.52 9.99999 14.38 9.99999 14.273 9.94549C14.1789 9.89755 14.1024 9.82106 14.0545 9.72698C14 9.62003 14 9.48001 14 9.19999V2.79999Z" stroke="black" stroke-width="2" stroke-linecap="round" stroke-linejoin="round"/>
</svg>
