<svg width="24" height="24" viewBox="0 0 24 24" fill="none" xmlns="http://www.w3.org/2000/svg">
<path d="M4.99993 13C4.99993 14.6484 5.66466 16.1415 6.74067 17.226C6.84445 17.3305 6.89633 17.3828 6.92696 17.4331C6.95619 17.4811 6.9732 17.5224 6.98625 17.5771C6.99993 17.6343 6.99993 17.6995 6.99993 17.8298V20.2C6.99993 20.48 6.99993 20.62 7.05443 20.727C7.10236 20.8211 7.17885 20.8976 7.27293 20.9455C7.37989 21 7.5199 21 7.79993 21H9.69993C9.97996 21 10.12 21 10.2269 20.9455C10.321 20.8976 10.3975 20.8211 10.4454 20.727C10.4999 20.62 10.4999 20.48 10.4999 20.2V19.8C10.4999 19.52 10.4999 19.38 10.5544 19.273C10.6024 19.1789 10.6789 19.1024 10.7729 19.0545C10.8799 19 11.0199 19 11.2999 19H12.6999C12.98 19 13.12 19 13.2269 19.0545C13.321 19.1024 13.3975 19.1789 13.4454 19.273C13.4999 19.38 13.4999 19.52 13.4999 19.8V20.2C13.4999 20.48 13.4999 20.62 13.5544 20.727C13.6024 20.8211 13.6789 20.8976 13.7729 20.9455C13.8799 21 14.0199 21 14.2999 21H16.2C16.48 21 16.62 21 16.727 20.9455C16.8211 20.8976 16.8976 20.8211 16.9455 20.727C17 20.62 17 20.48 17 20.2V19.2243C17 19.0223 17 18.9212 17.0288 18.8401C17.0563 18.7624 17.0911 18.708 17.15 18.6502C17.2114 18.59 17.3155 18.5417 17.5237 18.445C18.5059 17.989 19.344 17.2751 19.9511 16.3902C20.0579 16.2346 20.1112 16.1568 20.1683 16.1108C20.2228 16.0668 20.2717 16.0411 20.3387 16.021C20.4089 16 20.4922 16 20.6587 16H21.2C21.48 16 21.62 16 21.727 15.9455C21.8211 15.8976 21.8976 15.8211 21.9455 15.727C22 15.62 22 15.48 22 15.2V11.7857C22 11.5192 22 11.3859 21.9505 11.283C21.9013 11.181 21.819 11.0987 21.717 11.0495C21.6141 11 21.4808 11 21.2143 11C21.0213 11 20.9248 11 20.8471 10.9738C20.7633 10.9456 20.7045 10.908 20.6437 10.8438C20.5874 10.7842 20.5413 10.6846 20.4493 10.4855C20.1538 9.84622 19.7492 9.26777 19.2593 8.77404C19.1555 8.66945 19.1036 8.61716 19.073 8.56687C19.0437 8.51889 19.0267 8.47759 19.0137 8.42294C19 8.36567 19 8.30051 19 8.17018V7.06058C19 6.70053 19 6.52051 18.925 6.39951C18.8593 6.29351 18.7564 6.21588 18.6365 6.18184C18.4995 6.14299 18.3264 6.19245 17.9802 6.29136L15.6077 6.96922C15.5673 6.98074 15.5472 6.9865 15.5267 6.99054C15.5085 6.99414 15.4901 6.99671 15.4716 6.99826C15.4508 7 15.4298 7 15.3879 7H14.959M4.99993 13C4.99993 10.6959 6.29864 8.6952 8.20397 7.6899M4.99993 13H4C2.89543 13 2 12.1046 2 11C2 10.2597 2.4022 9.61337 3 9.26756M15 6.5C15 8.433 13.433 10 11.5 10C9.567 10 8 8.433 8 6.5C8 4.567 9.567 3 11.5 3C13.433 3 15 4.567 15 6.5Z" stroke="black" stroke-width="2" stroke-linecap="round" stroke-linejoin="round"/>
</svg>
