<svg width="24" height="24" viewBox="0 0 24 24" fill="none" xmlns="http://www.w3.org/2000/svg">
<path d="M18 7V5.2C18 4.0799 18 3.51984 17.782 3.09202C17.5903 2.71569 17.2843 2.40973 16.908 2.21799C16.4802 2 15.9201 2 14.8 2H9.2C8.0799 2 7.51984 2 7.09202 2.21799C6.71569 2.40973 6.40973 2.71569 6.21799 3.09202C6 3.51984 6 4.0799 6 5.2V7M6 18C5.07003 18 4.60504 18 4.22354 17.8978C3.18827 17.6204 2.37962 16.8117 2.10222 15.7765C2 15.395 2 14.93 2 14V11.8C2 10.1198 2 9.27976 2.32698 8.63803C2.6146 8.07354 3.07354 7.6146 3.63803 7.32698C4.27976 7 5.11984 7 6.8 7H17.2C18.8802 7 19.7202 7 20.362 7.32698C20.9265 7.6146 21.3854 8.07354 21.673 8.63803C22 9.27976 22 10.1198 22 11.8V14C22 14.93 22 15.395 21.8978 15.7765C21.6204 16.8117 20.8117 17.6204 19.7765 17.8978C19.395 18 18.93 18 18 18M15 10.5H18M9.2 22H14.8C15.9201 22 16.4802 22 16.908 21.782C17.2843 21.5903 17.5903 21.2843 17.782 20.908C18 20.4802 18 19.9201 18 18.8V17.2C18 16.0799 18 15.5198 17.782 15.092C17.5903 14.7157 17.2843 14.4097 16.908 14.218C16.4802 14 15.9201 14 14.8 14H9.2C8.0799 14 7.51984 14 7.09202 14.218C6.71569 14.4097 6.40973 14.7157 6.21799 15.092C6 15.5198 6 16.0799 6 17.2V18.8C6 19.9201 6 20.4802 6.21799 20.908C6.40973 21.2843 6.71569 21.5903 7.09202 21.782C7.51984 22 8.07989 22 9.2 22Z" stroke="black" stroke-width="2" stroke-linecap="round" stroke-linejoin="round"/>
</svg>
