<svg width="24" height="24" viewBox="0 0 24 24" fill="none" xmlns="http://www.w3.org/2000/svg">
<path d="M12 14.9998L9 11.9998M12 14.9998C13.3968 14.4685 14.7369 13.7985 16 12.9998M12 14.9998V19.9998C12 19.9998 15.03 19.4498 16 17.9998C17.08 16.3798 16 12.9998 16 12.9998M9 11.9998C9.53214 10.6192 10.2022 9.29582 11 8.04976C12.1652 6.18675 13.7876 4.65281 15.713 3.59385C17.6384 2.53489 19.8027 1.98613 22 1.99976C22 4.71976 21.22 9.49976 16 12.9998M9 11.9998H4C4 11.9998 4.55 8.96976 6 7.99976C7.62 6.91976 11 7.99976 11 7.99976M4.5 16.4998C3 17.7598 2.5 21.4998 2.5 21.4998C2.5 21.4998 6.24 20.9998 7.5 19.4998C8.21 18.6598 8.2 17.3698 7.41 16.5898C7.02131 16.2188 6.50929 16.0044 5.97223 15.9878C5.43516 15.9712 4.91088 16.1535 4.5 16.4998Z" stroke="black" stroke-width="2" stroke-linecap="round" stroke-linejoin="round"/>
</svg>
