<svg width="24" height="24" viewBox="0 0 24 24" fill="none" xmlns="http://www.w3.org/2000/svg">
<path d="M19 9C19 12.866 15.866 16 12 16M19 9C19 5.13401 15.866 2 12 2M19 9H5M12 16C8.13401 16 5 12.866 5 9M12 16C13.7509 14.0832 14.7468 11.5956 14.8009 9C14.7468 6.40442 13.7509 3.91685 12 2M12 16C10.2491 14.0832 9.25498 11.5956 9.20091 9C9.25498 6.40442 10.2491 3.91685 12 2M12 16V18M5 9C5 5.13401 8.13401 2 12 2M14 20C14 21.1046 13.1046 22 12 22C10.8954 22 10 21.1046 10 20M14 20C14 18.8954 13.1046 18 12 18M14 20H21M10 20C10 18.8954 10.8954 18 12 18M10 20H3" stroke="black" stroke-width="2" stroke-linecap="round" stroke-linejoin="round"/>
</svg>
