<svg width="24" height="24" viewBox="0 0 24 24" fill="none" xmlns="http://www.w3.org/2000/svg">
<path d="M22 10.5L21.5256 6.70463C21.3395 5.21602 21.2465 4.47169 20.8961 3.9108C20.5875 3.41662 20.1416 3.02301 19.613 2.77804C19.013 2.5 18.2629 2.5 16.7626 2.5H7.23735C5.73714 2.5 4.98704 2.5 4.38702 2.77804C3.85838 3.02301 3.4125 3.41662 3.10386 3.9108C2.75354 4.47169 2.6605 5.21601 2.47442 6.70463L2 10.5M5.5 14.5H18.5M5.5 14.5C3.567 14.5 2 12.933 2 11C2 9.067 3.567 7.5 5.5 7.5H18.5C20.433 7.5 22 9.067 22 11C22 12.933 20.433 14.5 18.5 14.5M5.5 14.5C3.567 14.5 2 16.067 2 18C2 19.933 3.567 21.5 5.5 21.5H18.5C20.433 21.5 22 19.933 22 18C22 16.067 20.433 14.5 18.5 14.5M6 11H6.01M6 18H6.01M12 11H18M12 18H18" stroke="black" stroke-width="2" stroke-linecap="round" stroke-linejoin="round"/>
</svg>
