<svg width="24" height="24" viewBox="0 0 24 24" fill="none" xmlns="http://www.w3.org/2000/svg">
<path d="M20.7914 12.6074C21.0355 12.3981 21.1575 12.2935 21.2023 12.169C21.2415 12.0598 21.2415 11.9402 21.2023 11.831C21.1575 11.7065 21.0355 11.6018 20.7914 11.3926L12.3206 4.13196C11.9004 3.77176 11.6903 3.59166 11.5124 3.58725C11.3578 3.58342 11.2101 3.65134 11.1124 3.77122C11 3.90915 11 4.18589 11 4.73936V9.03462C8.86532 9.40807 6.91159 10.4897 5.45971 12.1139C3.87682 13.8845 3.00123 16.1759 3 18.551V19.1629C4.04934 17.8989 5.35951 16.8765 6.84076 16.1659C8.1467 15.5394 9.55842 15.1683 11 15.0705V19.2606C11 19.8141 11 20.0908 11.1124 20.2288C11.2101 20.3486 11.3578 20.4166 11.5124 20.4127C11.6903 20.4083 11.9004 20.2282 12.3206 19.868L20.7914 12.6074Z" stroke="black" stroke-width="2" stroke-linecap="round" stroke-linejoin="round"/>
</svg>
