<svg width="24" height="24" viewBox="0 0 24 24" fill="none" xmlns="http://www.w3.org/2000/svg">
<path d="M11.302 21.6147C11.5234 21.7439 11.6341 21.8085 11.7903 21.842C11.9116 21.868 12.0884 21.868 12.2097 21.842C12.3659 21.8085 12.4766 21.7439 12.698 21.6147C14.646 20.4783 20 16.9083 20 11.9999V7.21747C20 6.41796 20 6.0182 19.8692 5.67457C19.7537 5.37101 19.566 5.10015 19.3223 4.8854C19.0465 4.64231 18.6722 4.50195 17.9236 4.22122L12.5618 2.21054C12.3539 2.13258 12.25 2.0936 12.143 2.07815C12.0482 2.06444 11.9518 2.06444 11.857 2.07815C11.75 2.0936 11.6461 2.13258 11.4382 2.21054L6.0764 4.22122C5.3278 4.50195 4.9535 4.64231 4.67766 4.8854C4.43398 5.10015 4.24627 5.37101 4.13076 5.67457C4 6.0182 4 6.41796 4 7.21747V11.9999C4 16.9083 9.35396 20.4783 11.302 21.6147Z" stroke="black" stroke-width="2" stroke-linecap="round" stroke-linejoin="round"/>
</svg>
