<svg width="24" height="24" viewBox="0 0 24 24" fill="none" xmlns="http://www.w3.org/2000/svg">
<path d="M18 15L21 18M21 18L18 21M21 18H18.5689C17.6297 18 17.1601 18 16.7338 17.8705C16.3564 17.7559 16.0054 17.5681 15.7007 17.3176C15.3565 17.0348 15.096 16.644 14.575 15.8626L14.3333 15.5M18 3L21 6M21 6L18 9M21 6H18.5689C17.6297 6 17.1601 6 16.7338 6.12945C16.3564 6.24406 16.0054 6.43194 15.7007 6.68236C15.3565 6.96523 15.096 7.35597 14.575 8.13744L9.42496 15.8626C8.90398 16.644 8.64349 17.0348 8.29933 17.3176C7.99464 17.5681 7.64357 17.7559 7.2662 17.8705C6.83994 18 6.37033 18 5.43112 18H3M3 6H5.43112C6.37033 6 6.83994 6 7.2662 6.12945C7.64357 6.24406 7.99464 6.43194 8.29933 6.68236C8.64349 6.96523 8.90398 7.35597 9.42496 8.13744L9.66667 8.5" stroke="black" stroke-width="2" stroke-linecap="round" stroke-linejoin="round"/>
</svg>
