<svg width="24" height="24" viewBox="0 0 24 24" fill="none" xmlns="http://www.w3.org/2000/svg">
<path d="M11.3063 3.20693C11.5338 2.81107 11.6476 2.61315 11.7962 2.54681C11.9259 2.48895 12.074 2.48895 12.2037 2.54681C12.3524 2.61315 12.4661 2.81107 12.6936 3.20693L14.6487 6.60925C14.733 6.75579 14.7751 6.82906 14.8341 6.88231C14.8863 6.92942 14.9479 6.96498 15.0148 6.98666C15.0905 7.01117 15.175 7.011 15.344 7.01065L19.2681 7.00272C19.7246 7.00179 19.9529 7.00133 20.0847 7.09691C20.1996 7.18028 20.2737 7.30858 20.2884 7.4498C20.3053 7.61171 20.1908 7.80918 19.9617 8.20412L17.9928 11.5985C17.908 11.7447 17.8656 11.8178 17.849 11.8955C17.8343 11.9643 17.8343 12.0355 17.849 12.1043C17.8656 12.182 17.908 12.2551 17.9928 12.4013L19.9617 15.7957C20.1908 16.1906 20.3053 16.3881 20.2884 16.55C20.2737 16.6912 20.1996 16.8195 20.0847 16.9029C19.9529 16.9985 19.7246 16.998 19.2681 16.9971L15.344 16.9891C15.175 16.9888 15.0905 16.9886 15.0148 17.0131C14.9479 17.0348 14.8863 17.0704 14.8341 17.1175C14.7751 17.1707 14.733 17.244 14.6487 17.3905L12.6936 20.7929C12.4661 21.1887 12.3524 21.3867 12.2037 21.453C12.074 21.5108 11.9259 21.5108 11.7962 21.453C11.6476 21.3867 11.5338 21.1887 11.3063 20.7929L9.35116 17.3905C9.26695 17.244 9.22485 17.1707 9.16581 17.1175C9.11357 17.0704 9.05198 17.0348 8.98507 17.0131C8.90943 16.9886 8.82493 16.9888 8.65592 16.9891L4.73183 16.9971C4.27527 16.998 4.04699 16.9985 3.91521 16.9029C3.80027 16.8195 3.7262 16.6912 3.71147 16.55C3.69458 16.3881 3.80913 16.1906 4.03821 15.7957L6.00712 12.4013C6.09193 12.2551 6.13433 12.182 6.15092 12.1043C6.1656 12.0355 6.1656 11.9643 6.15092 11.8955C6.13433 11.8178 6.09192 11.7447 6.00712 11.5985L4.03821 8.20411C3.80913 7.80918 3.69458 7.61171 3.71147 7.4498C3.7262 7.30858 3.80027 7.18028 3.91521 7.09691C4.04699 7.00133 4.27527 7.00179 4.73184 7.00272L8.65592 7.01065C8.82493 7.011 8.90943 7.01117 8.98507 6.98666C9.05198 6.96498 9.11357 6.92942 9.16581 6.88231C9.22485 6.82906 9.26695 6.75579 9.35116 6.60925L11.3063 3.20693Z" stroke="black" stroke-width="2" stroke-linecap="round" stroke-linejoin="round"/>
</svg>
