<svg width="24" height="24" viewBox="0 0 24 24" fill="none" xmlns="http://www.w3.org/2000/svg">
<path d="M11.2896 3.36637C11.5193 2.92427 11.6342 2.70323 11.7881 2.63139C11.9221 2.56883 12.077 2.56883 12.211 2.63139C12.3649 2.70323 12.4798 2.92427 12.7095 3.36637L14.2225 6.27865C14.3216 6.46934 14.3711 6.56468 14.4454 6.62803C14.511 6.68394 14.5899 6.72195 14.6745 6.73837C14.7704 6.75697 14.8758 6.73625 15.0867 6.69481L18.3069 6.06197C18.7958 5.9659 19.0402 5.91786 19.1923 5.99342C19.3248 6.05921 19.4214 6.18027 19.456 6.32406C19.4958 6.4892 19.3946 6.71681 19.1922 7.17203L17.8586 10.1707C17.7713 10.3671 17.7276 10.4653 17.7244 10.5628C17.7216 10.649 17.7411 10.7344 17.781 10.8108C17.8262 10.8973 17.9082 10.9668 18.072 11.1058L20.5746 13.229C20.9545 13.5513 21.1445 13.7124 21.1803 13.8785C21.2114 14.0231 21.177 14.174 21.0862 14.2908C20.9819 14.4249 20.7408 14.4876 20.2587 14.6132L17.0827 15.4402C16.8748 15.4944 16.7708 15.5215 16.6925 15.5798C16.6234 15.6313 16.5688 15.6998 16.534 15.7786C16.4945 15.868 16.4912 15.9754 16.4847 16.1901L16.3851 19.4705C16.37 19.9685 16.3624 20.2175 16.2549 20.349C16.1613 20.4635 16.0218 20.5307 15.8739 20.5325C15.704 20.5345 15.5047 20.3852 15.1059 20.0865L12.4791 18.1191C12.3071 17.9903 12.2211 17.9259 12.1267 17.9011C12.0434 17.8791 11.9558 17.8791 11.8724 17.9011C11.778 17.9259 11.692 17.9903 11.52 18.1191L8.8932 20.0865C8.49444 20.3852 8.29506 20.5345 8.12521 20.5325C7.97731 20.5307 7.8378 20.4635 7.74418 20.349C7.63667 20.2175 7.62911 19.9685 7.61399 19.4705L7.51439 16.1901C7.50787 15.9754 7.50461 15.868 7.46514 15.7786C7.43031 15.6998 7.37569 15.6313 7.30658 15.5798C7.22829 15.5215 7.12432 15.4944 6.91636 15.4402L3.74042 14.6132C3.2583 14.4876 3.01724 14.4249 2.91295 14.2908C2.82214 14.174 2.78768 14.0231 2.81884 13.8785C2.85463 13.7124 3.04458 13.5513 3.42448 13.229L5.92706 11.1058C6.09093 10.9668 6.17286 10.8973 6.21808 10.8108C6.258 10.7344 6.27749 10.649 6.27467 10.5628C6.27148 10.4653 6.22782 10.3671 6.1405 10.1707L4.80694 7.17203C4.6045 6.71681 4.50328 6.4892 4.54309 6.32406C4.57775 6.18027 4.6743 6.05921 4.80677 5.99342C4.95891 5.91786 5.20333 5.9659 5.69219 6.06197L8.91245 6.69481C9.1233 6.73625 9.22873 6.75697 9.32458 6.73837C9.4092 6.72195 9.48812 6.68394 9.55371 6.62803C9.62802 6.56468 9.67755 6.46934 9.77662 6.27865L11.2896 3.36637Z" stroke="black" stroke-width="2" stroke-linecap="round" stroke-linejoin="round"/>
</svg>
