<svg width="24" height="24" viewBox="0 0 24 24" fill="none" xmlns="http://www.w3.org/2000/svg">
<path d="M3 7.8C3 6.11984 3 5.27976 3.32698 4.63803C3.6146 4.07354 4.07354 3.6146 4.63803 3.32698C5.27976 3 6.11984 3 7.8 3H16.2C17.8802 3 18.7202 3 19.362 3.32698C19.9265 3.6146 20.3854 4.07354 20.673 4.63803C21 5.27976 21 6.11984 21 7.8V16.2C21 17.8802 21 18.7202 20.673 19.362C20.3854 19.9265 19.9265 20.3854 19.362 20.673C18.7202 21 17.8802 21 16.2 21H7.8C6.11984 21 5.27976 21 4.63803 20.673C4.07354 20.3854 3.6146 19.9265 3.32698 19.362C3 18.7202 3 17.8802 3 16.2V7.8Z" stroke="black" stroke-width="2" stroke-linecap="round" stroke-linejoin="round"/>
<path d="M8 9.6C8 9.03995 8 8.75992 8.10899 8.54601C8.20487 8.35785 8.35785 8.20487 8.54601 8.10899C8.75992 8 9.03995 8 9.6 8H14.4C14.9601 8 15.2401 8 15.454 8.10899C15.6422 8.20487 15.7951 8.35785 15.891 8.54601C16 8.75992 16 9.03995 16 9.6V14.4C16 14.9601 16 15.2401 15.891 15.454C15.7951 15.6422 15.6422 15.7951 15.454 15.891C15.2401 16 14.9601 16 14.4 16H9.6C9.03995 16 8.75992 16 8.54601 15.891C8.35785 15.7951 8.20487 15.6422 8.10899 15.454C8 15.2401 8 14.9601 8 14.4V9.6Z" stroke="black" stroke-width="2" stroke-linecap="round" stroke-linejoin="round"/>
</svg>
