<svg width="24" height="24" viewBox="0 0 24 24" fill="none" xmlns="http://www.w3.org/2000/svg">
<path d="M12 22C17.5228 22 22 17.5228 22 12C22 6.47715 17.5228 2 12 2C6.47715 2 2 6.47715 2 12C2 17.5228 6.47715 22 12 22Z" stroke="black" stroke-width="2" stroke-linecap="round" stroke-linejoin="round"/>
<path d="M8 9.6C8 9.03995 8 8.75992 8.10899 8.54601C8.20487 8.35785 8.35785 8.20487 8.54601 8.10899C8.75992 8 9.03995 8 9.6 8H14.4C14.9601 8 15.2401 8 15.454 8.10899C15.6422 8.20487 15.7951 8.35785 15.891 8.54601C16 8.75992 16 9.03995 16 9.6V14.4C16 14.9601 16 15.2401 15.891 15.454C15.7951 15.6422 15.6422 15.7951 15.454 15.891C15.2401 16 14.9601 16 14.4 16H9.6C9.03995 16 8.75992 16 8.54601 15.891C8.35785 15.7951 8.20487 15.6422 8.10899 15.454C8 15.2401 8 14.9601 8 14.4V9.6Z" stroke="black" stroke-width="2" stroke-linecap="round" stroke-linejoin="round"/>
</svg>
