<svg width="24" height="24" viewBox="0 0 24 24" fill="none" xmlns="http://www.w3.org/2000/svg">
<path d="M12 9C11.1077 8.98562 10.2363 9.27003 9.52424 9.808C8.81222 10.346 8.30055 11.1066 8.07061 11.9688C7.84068 12.8311 7.90568 13.7455 8.25529 14.5665C8.6049 15.3876 9.21904 16.0682 10 16.5M12 3V5M6.6 18.4L5.2 19.8M4 13H2M6.6 7.6L5.2 6.2M20 14.5351V4C20 2.89543 19.1046 2 18 2C16.8954 2 16 2.89543 16 4V14.5351C14.8044 15.2267 14 16.5194 14 18C14 20.2091 15.7909 22 18 22C20.2091 22 22 20.2091 22 18C22 16.5194 21.1956 15.2267 20 14.5351Z" stroke="black" stroke-width="2" stroke-linecap="round" stroke-linejoin="round"/>
</svg>
