<svg width="24" height="24" viewBox="0 0 24 24" fill="none" xmlns="http://www.w3.org/2000/svg">
<path d="M18.5 3L17.5135 2.50675C17.1355 2.31776 16.9465 2.22326 16.7485 2.15662C16.5725 2.09744 16.3915 2.05471 16.2077 2.02897C16.0008 2 15.7895 2 15.3669 2H8.63313C8.21053 2 7.99923 2 7.79227 2.02897C7.60847 2.05471 7.42745 2.09744 7.25155 2.15662C7.05348 2.22326 6.86449 2.31776 6.4865 2.50675L5.5 3M11 6L9 2M13 6L15 2M4 13H20M17 20L18 22M7 20L6.00016 22M8.5 16.5H8.51M15.5 16.5H15.51M8.8 20H15.2C16.8802 20 17.7202 20 18.362 19.673C18.9265 19.3854 19.3854 18.9265 19.673 18.362C20 17.7202 20 16.8802 20 15.2V10.8C20 9.11984 20 8.27976 19.673 7.63803C19.3854 7.07354 18.9265 6.6146 18.362 6.32698C17.7202 6 16.8802 6 15.2 6H8.8C7.11984 6 6.27976 6 5.63803 6.32698C5.07354 6.6146 4.6146 7.07354 4.32698 7.63803C4 8.27976 4 9.11984 4 10.8V15.2C4 16.8802 4 17.7202 4.32698 18.362C4.6146 18.9265 5.07354 19.3854 5.63803 19.673C6.27976 20 7.11984 20 8.8 20ZM9 16.5C9 16.7761 8.77614 17 8.5 17C8.22386 17 8 16.7761 8 16.5C8 16.2239 8.22386 16 8.5 16C8.77614 16 9 16.2239 9 16.5ZM16 16.5C16 16.7761 15.7761 17 15.5 17C15.2239 17 15 16.7761 15 16.5C15 16.2239 15.2239 16 15.5 16C15.7761 16 16 16.2239 16 16.5Z" stroke="black" stroke-width="2" stroke-linecap="round" stroke-linejoin="round"/>
</svg>
