<svg width="24" height="24" viewBox="0 0 24 24" fill="none" xmlns="http://www.w3.org/2000/svg">
<path d="M18 17V19.4C18 19.9601 18 20.2401 17.891 20.454C17.7951 20.6422 17.6422 20.7951 17.454 20.891C17.2401 21 16.9601 21 16.4 21H7.6C7.03995 21 6.75992 21 6.54601 20.891C6.35785 20.7951 6.20487 20.6422 6.10899 20.454C6 20.2401 6 19.9601 6 19.4V17M6.8 17H17.2C18.8802 17 19.7202 17 20.362 16.673C20.9265 16.3854 21.3854 15.9265 21.673 15.362C22 14.7202 22 13.8802 22 12.2V7.8C22 6.11984 22 5.27976 21.673 4.63803C21.3854 4.07354 20.9265 3.6146 20.362 3.32698C19.7202 3 18.8802 3 17.2 3H6.8C5.11984 3 4.27976 3 3.63803 3.32698C3.07354 3.6146 2.6146 4.07354 2.32698 4.63803C2 5.27976 2 6.11984 2 7.8V12.2C2 13.8802 2 14.7202 2.32698 15.362C2.6146 15.9265 3.07354 16.3854 3.63803 16.673C4.27976 17 5.11984 17 6.8 17Z" stroke="black" stroke-width="2" stroke-linecap="round" stroke-linejoin="round"/>
</svg>
