<svg width="24" height="24" viewBox="0 0 24 24" fill="none" xmlns="http://www.w3.org/2000/svg">
<path d="M17 3L12 7L7 3M6.8 21H17.2C18.8802 21 19.7202 21 20.362 20.673C20.9265 20.3854 21.3854 19.9265 21.673 19.362C22 18.7202 22 17.8802 22 16.2V11.8C22 10.1198 22 9.27976 21.673 8.63803C21.3854 8.07354 20.9265 7.6146 20.362 7.32698C19.7202 7 18.8802 7 17.2 7H6.8C5.11984 7 4.27976 7 3.63803 7.32698C3.07354 7.6146 2.6146 8.07354 2.32698 8.63803C2 9.27976 2 10.1198 2 11.8V16.2C2 17.8802 2 18.7202 2.32698 19.362C2.6146 19.9265 3.07354 20.3854 3.63803 20.673C4.27976 21 5.11984 21 6.8 21Z" stroke="black" stroke-width="2" stroke-linecap="round" stroke-linejoin="round"/>
</svg>
