<svg width="24" height="24" viewBox="0 0 24 24" fill="none" xmlns="http://www.w3.org/2000/svg">
<path d="M18 9V3.6C18 3.03995 18 2.75992 17.891 2.54601C17.7951 2.35785 17.6422 2.20487 17.454 2.10899C17.2401 2 16.9601 2 16.4 2H7.6C7.03995 2 6.75992 2 6.54601 2.10899C6.35785 2.20487 6.20487 2.35785 6.10899 2.54601C6 2.75992 6 3.03995 6 3.6V9M10 6V5M14 6V5M8.8 22H15.2C16.8802 22 17.7202 22 18.362 21.673C18.9265 21.3854 19.3854 20.9265 19.673 20.362C20 19.7202 20 18.8802 20 17.2V12.2C20 11.0799 20 10.5198 19.782 10.092C19.5903 9.71569 19.2843 9.40973 18.908 9.21799C18.4802 9 17.9201 9 16.8 9H7.2C6.0799 9 5.51984 9 5.09202 9.21799C4.71569 9.40973 4.40973 9.71569 4.21799 10.092C4 10.5198 4 11.0799 4 12.2V17.2C4 18.8802 4 19.7202 4.32698 20.362C4.6146 20.9265 5.07354 21.3854 5.63803 21.673C6.27976 22 7.11984 22 8.8 22Z" stroke="black" stroke-width="2" stroke-linecap="round" stroke-linejoin="round"/>
</svg>
