<svg width="24" height="24" viewBox="0 0 24 24" fill="none" xmlns="http://www.w3.org/2000/svg">
<path d="M11 15H8C6.13623 15 5.20435 15 4.46927 15.3045C3.48915 15.7105 2.71046 16.4892 2.30448 17.4693C2 18.2044 2 19.1362 2 21M15.5 3.29076C16.9659 3.88415 18 5.32131 18 7M11.9999 21.5L14.025 21.095C14.2015 21.0597 14.2898 21.042 14.3721 21.0097C14.4452 20.9811 14.5147 20.9439 14.579 20.899C14.6516 20.8484 14.7152 20.7848 14.8426 20.6574L21.5 14C22.0524 13.4477 22.0523 12.5523 21.5 12C20.9477 11.4477 20.0523 11.4477 19.5 12L12.8425 18.6575C12.7152 18.7848 12.6516 18.8484 12.601 18.921C12.5561 18.9853 12.5189 19.0548 12.4902 19.1278C12.458 19.2102 12.4403 19.2984 12.405 19.475L11.9999 21.5ZM13.5 7C13.5 9.20914 11.7091 11 9.5 11C7.29086 11 5.5 9.20914 5.5 7C5.5 4.79086 7.29086 3 9.5 3C11.7091 3 13.5 4.79086 13.5 7Z" stroke="black" stroke-width="2" stroke-linecap="round" stroke-linejoin="round"/>
</svg>
