<svg width="24" height="24" viewBox="0 0 24 24" fill="none" xmlns="http://www.w3.org/2000/svg">
<path d="M12 15C8.8299 15 6.01077 16.5306 4.21597 18.906C3.82968 19.4172 3.63653 19.6728 3.64285 20.0183C3.64773 20.2852 3.81533 20.6219 4.02534 20.7867C4.29716 21 4.67384 21 5.4272 21H18.5727C19.3261 21 19.7028 21 19.9746 20.7867C20.1846 20.6219 20.3522 20.2852 20.3571 20.0183C20.3634 19.6728 20.1703 19.4172 19.784 18.906C17.9892 16.5306 15.17 15 12 15Z" stroke="black" stroke-width="2" stroke-linecap="round" stroke-linejoin="round"/>
<path d="M12 12C14.4853 12 16.5 9.98528 16.5 7.5C16.5 5.01472 14.4853 3 12 3C9.51469 3 7.49997 5.01472 7.49997 7.5C7.49997 9.98528 9.51469 12 12 12Z" stroke="black" stroke-width="2" stroke-linecap="round" stroke-linejoin="round"/>
</svg>
