<svg width="24" height="24" viewBox="0 0 24 24" fill="none" xmlns="http://www.w3.org/2000/svg">
<path d="M18 15.8369C19.4559 16.5683 20.7041 17.742 21.6152 19.2096C21.7956 19.5003 21.8858 19.6456 21.917 19.8468C21.9804 20.2558 21.7008 20.7585 21.3199 20.9204C21.1325 21 20.9216 21 20.5 21M16 11.5322C17.4817 10.7959 18.5 9.26686 18.5 7.5C18.5 5.73314 17.4817 4.20411 16 3.46776M14 7.5C14 9.98528 11.9852 12 9.49996 12C7.01468 12 4.99996 9.98528 4.99996 7.5C4.99996 5.01472 7.01468 3 9.49996 3C11.9852 3 14 5.01472 14 7.5ZM2.55919 18.9383C4.1535 16.5446 6.66933 15 9.49996 15C12.3306 15 14.8464 16.5446 16.4407 18.9383C16.79 19.4628 16.9646 19.725 16.9445 20.0599C16.9289 20.3207 16.7579 20.64 16.5495 20.7976C16.2819 21 15.9138 21 15.1776 21H3.82232C3.08613 21 2.71804 21 2.4504 20.7976C2.24201 20.64 2.07105 20.3207 2.05539 20.0599C2.03529 19.725 2.20992 19.4628 2.55919 18.9383Z" stroke="black" stroke-width="2" stroke-linecap="round" stroke-linejoin="round"/>
</svg>
