<?xml version="1.0" encoding="UTF-8" standalone="no"?>
<!-- Created with Inkscape (http://www.inkscape.org/) -->

<svg
   version="1.1"
   id="svg18"
   width="1000"
   height="1000"
   viewBox="0 0 999.99999 1000"
   sodipodi:docname="icon.svg"
   inkscape:version="1.3.2 (1:1.3.2+202311252150+091e20ef0f)"
   xmlns:inkscape="http://www.inkscape.org/namespaces/inkscape"
   xmlns:sodipodi="http://sodipodi.sourceforge.net/DTD/sodipodi-0.dtd"
   xmlns="http://www.w3.org/2000/svg"
   xmlns:svg="http://www.w3.org/2000/svg">
  <defs
     id="defs22">
    <clipPath
       clipPathUnits="userSpaceOnUse"
       id="clipPath34">
      <path
         d="M 0,3236.692 H 3834.782 V 0 H 0 Z"
         id="path32" />
    </clipPath>
  </defs>
  <sodipodi:namedview
     id="namedview20"
     pagecolor="#ffffff"
     bordercolor="#000000"
     borderopacity="0.25"
     inkscape:showpageshadow="2"
     inkscape:pageopacity="0.0"
     inkscape:pagecheckerboard="0"
     inkscape:deskcolor="#d1d1d1"
     showgrid="false"
     inkscape:zoom="0.47594916"
     inkscape:cx="401.30337"
     inkscape:cy="504.25554"
     inkscape:window-width="2506"
     inkscape:window-height="1376"
     inkscape:window-x="54"
     inkscape:window-y="27"
     inkscape:window-maximized="1"
     inkscape:current-layer="g26">
    <inkscape:page
       x="0"
       y="0"
       id="page24"
       width="1000"
       height="1000"
       margin="0"
       bleed="0" />
  </sodipodi:namedview>
  <g
     id="g26"
     inkscape:groupmode="layer"
     inkscape:label="Page 1"
     transform="matrix(1.3333333,0,0,-1.3333333,0,4315.5867)">
    <circle
       style="fill:#8db600;stroke-width:1.5;stroke-linecap:round"
       id="path1"
       cx="375"
       cy="-2861.6902"
       r="375"
       transform="scale(1,-1)" />
    <g
       id="g28"
       transform="matrix(0.13958769,0,0,0.13958769,107.56017,2640.7112)">
      <g
         id="g30"
         clip-path="url(#clipPath34)">
        <g
           id="g36"
           transform="translate(151.1082,1255.2644)">
          <path
             d="m 0,0 383.651,-118.015 c 58.837,40.336 152.415,104.657 191.943,132.798 155.817,110.95 356.643,140.171 565.44,82.044 C 1242.702,68.565 1351.981,26.975 1457.753,-33.701 1310.3,415.161 952.387,602.78 673.221,680.393 480.729,733.844 296.507,711.339 154.562,616.772 12.774,522.331 -75.876,362.857 -101.786,155.613 -110.464,86.25 -67.653,20.81 0,0"
             style="fill:#dd8577;fill-opacity:1;fill-rule:nonzero;stroke:none"
             id="path38" />
        </g>
        <g
           id="g40"
           transform="translate(1243.6663,1734.3396)">
          <path
             d="m 0,0 c 63.09,-84.965 117.079,-184.946 156.076,-303.659 -105.772,60.676 -215.051,102.266 -316.719,130.528 -208.798,58.127 -409.623,28.906 -565.44,-82.044 -39.524,-28.141 -133.102,-92.462 -191.943,-132.798 l -273.054,83.994 c -0.965,-6.589 -2.428,-12.792 -3.264,-19.483 -8.678,-69.363 34.133,-134.804 101.786,-155.613 l 383.651,-118.015 c 58.837,40.336 152.415,104.656 191.943,132.798 155.817,110.95 356.643,140.171 565.44,82.044 101.668,-28.262 210.947,-69.853 316.719,-130.528 C 287.679,-276.804 151.831,-113.546 0,0"
             style="fill:#bc5757;fill-opacity:1;fill-rule:nonzero;stroke:none"
             id="path42" />
        </g>
        <g
           id="g44"
           transform="translate(1270.5486,2305.8904)">
          <path
             d="m 0,0 c 11.707,34.838 57.233,53.859 132.937,51.473 68.218,-1.035 153.494,-17.639 240.105,-46.734 161.796,-54.33 320,-153.071 294.498,-228.994 -11.346,-33.772 -54.911,-51.537 -126.173,-51.537 -2.229,0 -4.473,0 -6.764,0.063 -68.218,1.036 -153.495,17.639 -240.105,46.734 C 132.701,-174.665 -25.501,-75.924 0,0 m 504.315,292.677 c 11.692,34.839 56.998,54.11 132.937,51.474 68.218,-1.036 153.495,-17.639 240.105,-46.734 161.797,-54.33 320,-153.072 294.498,-228.995 -11.346,-33.772 -54.91,-51.536 -126.173,-51.536 -2.228,0 -4.473,0 -6.764,0.062 C 970.701,17.984 885.423,34.587 798.813,63.683 637.016,118.012 478.814,216.754 504.315,292.677 m 502.135,289.79 c 11.691,34.839 57.405,54.141 132.936,51.473 68.218,-1.035 153.495,-17.639 240.106,-46.733 161.796,-54.331 319.999,-153.072 294.497,-228.995 -11.346,-33.772 -54.942,-51.568 -126.22,-51.568 -2.213,0 -4.441,0.031 -6.701,0.063 -68.234,1.036 -153.51,17.639 -240.121,46.734 -161.796,54.361 -319.999,153.102 -294.497,229.026 M -437.62,-339.287 c 294.169,-81.784 674.006,-282.022 818.124,-770.325 74.974,-47.242 147.304,-104.857 213.003,-174.912 432.229,247.791 1450.433,832.059 1852.068,1067.048 50.375,29.472 77.414,85.497 68.877,142.745 -89.435,600.389 -503.75,836.382 -835.551,928.658 -175.622,48.743 -345.265,34.933 -477.699,-38.981 -431.61,-241.01 -1560.183,-895.715 -1975.758,-1137.138 104.905,20.82 219.517,15.546 336.936,-17.095"
             style="fill:#f4da8f;fill-opacity:1;fill-rule:nonzero;stroke:none"
             id="path46" />
        </g>
        <g
           id="g48"
           transform="translate(1575.2781,2107.3401)">
          <path
             d="m 0,0 c 83.566,-28.059 165.375,-44.066 230.375,-45.071 66.901,-0.533 96.921,14.658 101.959,29.598 12.131,36.094 -86.344,125.168 -274.253,188.318 -83.567,28.059 -165.375,44.066 -230.376,45.071 -2.119,0.031 -4.19,0.031 -6.246,0.031 -63.086,0 -90.848,-15.129 -95.712,-29.629 C -286.384,152.224 -187.91,63.149 0,0"
             style="fill:#bc5757;fill-opacity:1;fill-rule:nonzero;stroke:none"
             id="path50" />
        </g>
        <g
           id="g52"
           transform="translate(2581.7278,2689.7761)">
          <path
             d="m 0,0 c 83.55,-28.059 165.358,-44.066 230.359,-45.039 67.418,-0.722 96.953,14.626 101.975,29.597 12.131,36.094 -86.344,125.169 -274.254,188.318 -83.565,28.06 -165.374,44.066 -230.375,45.071 -2.119,0.031 -4.19,0.031 -6.246,0.031 -63.087,0 -90.848,-15.128 -95.713,-29.629 C -286.385,152.255 -187.91,63.149 0,0"
             style="fill:#bc5757;fill-opacity:1;fill-rule:nonzero;stroke:none"
             id="path54" />
        </g>
        <g
           id="g56"
           transform="translate(2079.594,2400.0178)">
          <path
             d="m 0,0 c 83.565,-28.06 165.374,-44.066 230.375,-45.071 66.821,-0.816 96.921,14.626 101.959,29.597 12.131,36.095 -86.344,125.169 -274.254,188.318 -83.566,28.06 -165.375,44.067 -230.376,45.071 -2.118,0.031 -4.189,0.031 -6.245,0.031 -63.087,0 -90.848,-15.128 -95.713,-29.628 C -286.385,152.224 -187.91,63.149 0,0"
             style="fill:#bc5757;fill-opacity:1;fill-rule:nonzero;stroke:none"
             id="path58" />
        </g>
        <g
           id="g60"
           transform="translate(1846.2991,992.655)">
          <path
             d="m 0,0 c -0.071,0.126 -0.063,0.269 -0.133,0.396 -66.132,71.751 -139.481,130.152 -215.499,177.8 -0.502,0.253 -0.941,0.561 -1.412,0.866 -114.36,71.446 -234.699,118.561 -345.713,149.427 -199.35,55.397 -390.43,27.965 -538.197,-77.273 -20.511,-14.605 -55.557,-38.939 -92.723,-64.589 115.91,31.651 245.543,29.815 378.762,-7.223 339.082,-94.253 763.112,-335.111 857.585,-947.176 4.99,-32.279 1.239,-64.323 -9.949,-93.478 63.576,43.289 147.77,101.106 185.257,129.007 41.619,30.947 62.192,84.461 53.67,139.638 C 231.635,-333.37 130.731,-142.65 2.327,-2.316 1.585,-1.489 0.573,-1.004 0,0"
             style="fill:#f4da8f;fill-opacity:1;fill-rule:nonzero;stroke:none"
             id="path62" />
        </g>
        <g
           id="g64"
           transform="translate(1857.2058,219.9871)">
          <path
             d="m 0,0 c -91.868,595.115 -504.472,829.383 -834.421,921.125 -68.359,18.989 -135.667,28.405 -200.417,28.405 -116.569,0 -224.75,-30.593 -315.782,-90.532 -2.688,-1.84 -4.641,-3.172 -4.798,-3.282 0,-0.002 -0.01,-0.002 -0.01,-0.004 -140.36,-94.644 -228.241,-253.33 -254.002,-459.366 -8.678,-69.332 34.133,-134.804 101.786,-155.645 l 1319.779,-405.919 c 48.366,-14.877 100.029,-4.049 138.163,28.906 C -10.624,-102.508 7.957,-51.568 0,0"
             style="fill:#dd8577;fill-opacity:1;fill-rule:nonzero;stroke:none"
             id="path66" />
        </g>
        <g
           id="g68"
           transform="translate(1857.2058,219.9871)">
          <path
             d="m 0,0 c -74.837,484.785 -362.504,730.083 -644.958,853.979 107.872,-134.752 191.257,-310.541 226.728,-540.302 7.956,-51.569 -10.625,-102.508 -49.701,-136.312 -38.134,-32.955 -89.796,-43.783 -138.162,-28.906 l -993.676,305.62 c -3.617,-18.93 -7.179,-37.91 -9.659,-57.733 -8.678,-69.332 34.133,-134.804 101.786,-155.645 l 1319.779,-405.919 c 48.366,-14.877 100.029,-4.049 138.163,28.906 C -10.624,-102.508 7.957,-51.568 0,0"
             style="fill:#bc5757;fill-opacity:1;fill-rule:nonzero;stroke:none"
             id="path70" />
        </g>
        <g
           id="g72"
           transform="translate(3785.0002,2231.1594)">
          <path
             d="m 0,0 c -89.435,600.389 -503.75,836.382 -835.551,928.658 -101.644,28.211 -201.029,34.8 -292.614,21.578 701.022,-178.425 763.759,-722.13 763.759,-722.13 L -2203.609,-854.969 c 26.811,-55.24 50.457,-114.843 69.661,-179.912 74.974,-47.243 147.304,-104.857 213.004,-174.912 432.228,247.791 1450.432,832.059 1852.067,1067.048 C -18.502,-113.273 8.537,-57.249 0,0"
             style="fill:#dfb673;fill-opacity:1;fill-rule:nonzero;stroke:none"
             id="path74" />
        </g>
        <g
           id="g76"
           transform="translate(1622.9934,819.6443)">
          <path
             d="m 0,0 h -0.004 c 126.742,-143.116 225.97,-335.55 265.98,-594.762 4.99,-32.278 1.239,-64.322 -9.95,-93.477 63.577,43.289 147.771,101.106 185.257,129.007 41.619,30.947 62.193,84.461 53.671,139.637 -40.014,259.236 -140.917,449.955 -269.322,590.289 -0.741,0.827 -1.754,1.313 -2.326,2.317 -0.071,0.126 -0.063,0.268 -0.134,0.396 C 229.222,60.789 112.187,-66.136 0,0"
             style="fill:#dfb673;fill-opacity:1;fill-rule:nonzero;stroke:none"
             id="path78" />
        </g>
        <g
           id="g80"
           transform="translate(1860.2659,968.5193)">
          <path
             d="m 0,0 c -11.142,0 -21.97,5.807 -27.918,16.164 -8.82,15.379 -3.499,35.026 11.896,43.847 425.41,243.871 1458.6,836.696 1863.766,1073.757 44.679,26.145 68.657,75.766 61.094,126.487 -88.164,591.851 -496.735,824.55 -823.97,915.538 -171.511,47.676 -336.838,34.369 -465.553,-37.506 C 88.572,1841.938 -1496.704,919.65 -1512.648,910.36 c -15.316,-8.914 -35.011,-3.735 -43.941,11.613 -8.929,15.348 -3.735,35.027 11.613,43.941 15.96,9.29 1601.706,931.859 2132.967,1228.492 143.562,80.192 326.167,95.571 514.093,43.344 345.579,-96.104 777.094,-342.048 870.343,-968.017 11.439,-76.834 -24.749,-151.972 -92.23,-191.456 C 1474.812,841.09 441.433,248.171 15.96,4.269 10.907,1.381 5.414,0 0,0"
             style="fill:#433c35;fill-opacity:1;fill-rule:nonzero;stroke:none"
             id="path82" />
        </g>
        <g
           id="g84"
           transform="translate(1879.4592,1514.5154)">
          <path
             d="m 0,0 c -11.111,0 -21.908,5.744 -27.872,16.07 -8.866,15.379 -3.609,35.027 11.77,43.909 l 1611.625,930.448 c 15.395,8.913 35.011,3.609 43.91,-11.77 8.866,-15.379 3.609,-35.027 -11.77,-43.909 L 16.038,4.3 C 10.969,1.381 5.445,0 0,0"
             style="fill:#433c35;fill-opacity:1;fill-rule:nonzero;stroke:none"
             id="path86" />
        </g>
        <g
           id="g88"
           transform="translate(537.4896,1087.4734)">
          <path
             d="m 0,0 c -3.139,0 -6.324,0.439 -9.463,1.412 l -391.089,120.304 c -90.063,27.682 -147.03,115.031 -135.448,207.683 27.699,221.587 123.646,392.831 277.455,495.308 153.762,102.413 351.998,127.24 558.3,69.928 299.472,-83.267 686.843,-287.593 831.455,-788.047 4.912,-17.043 -4.912,-34.87 -21.955,-39.798 -17.074,-4.803 -34.87,4.897 -39.797,21.971 C 933.068,560.717 566.241,753.805 282.524,832.679 94.551,884.968 -84.963,863.092 -222.906,771.193 -360.691,679.419 -446.91,523.9 -472.223,321.427 c -7.705,-61.612 30.382,-119.77 90.565,-138.257 L 9.432,62.866 C 26.396,57.625 35.922,39.641 30.696,22.692 26.458,8.882 13.731,0 0,0"
             style="fill:#433c35;fill-opacity:1;fill-rule:nonzero;stroke:none"
             id="path90" />
        </g>
        <g
           id="g92"
           transform="translate(741.1712,1240.1677)">
          <path
             d="m 0,0 c -3.39,0 -6.827,0.533 -10.216,1.663 -82.436,27.651 -169.345,61.016 -238.411,91.491 -112.63,49.747 -107.514,110.166 -100.091,133.831 21.688,69.176 135.306,102.446 264.1,77.4 17.42,-3.39 28.797,-20.244 25.408,-37.664 -3.374,-17.45 -20.198,-28.939 -37.68,-25.423 -109.82,21.249 -183.422,-10.986 -190.499,-33.552 -3.013,-9.604 11.739,-32.391 64.719,-55.773 C -155.315,122.25 -70.431,89.671 10.216,62.615 27.055,56.966 36.11,38.762 30.476,21.907 25.957,8.475 13.433,0 0,0"
             style="fill:#433c35;fill-opacity:1;fill-rule:nonzero;stroke:none"
             id="path94" />
        </g>
        <g
           id="g96"
           transform="translate(1215.0105,1321.1443)">
          <path
             d="m 0,0 c -12.021,0 -23.556,6.779 -29.048,18.361 -101.205,213.365 -492.891,570.666 -1057.688,313.361 -16.18,-7.344 -35.215,-0.22 -42.576,15.913 -7.359,16.164 -0.219,35.216 15.929,42.591 C -505.116,667.399 -81.008,277.957 29.017,45.918 36.627,29.88 29.801,10.703 13.763,3.107 9.306,1.004 4.614,0 0,0"
             style="fill:#433c35;fill-opacity:1;fill-rule:nonzero;stroke:none"
             id="path98" />
        </g>
        <g
           id="g100"
           transform="translate(1901.304,2601.8943)">
          <path
             d="m 0,0 c -55.57,0 -78.717,-12.648 -80.742,-18.675 -6.936,-20.652 77.038,-105.081 264.147,-167.948 82.029,-27.557 162.111,-43.282 225.495,-44.254 60.168,-1.319 84.414,12.397 86.501,18.643 6.937,20.652 -77.038,105.081 -264.147,167.948 C 149.226,-16.729 69.144,-1.004 5.759,-0.031 3.798,0 1.883,0 0,0 m 414.833,-295.188 c -2.276,0 -4.567,0 -6.905,0.063 -69.835,1.067 -156.838,17.953 -244.987,47.55 -168.088,56.464 -335.111,158.595 -304.604,249.364 9.871,29.378 43.847,64.342 148.395,62.428 69.834,-1.068 156.837,-17.953 244.986,-47.55 168.09,-56.465 335.112,-158.596 304.604,-249.365 -9.635,-28.719 -42.12,-62.49 -141.489,-62.49"
             style="fill:#433c35;fill-opacity:1;fill-rule:nonzero;stroke:none"
             id="path102" />
        </g>
        <g
           id="g104"
           transform="translate(1396.988,2309.217)">
          <path
             d="m 0,0 c -55.554,0 -78.717,-12.648 -80.741,-18.675 -6.936,-20.652 77.037,-105.081 264.147,-167.948 82.028,-27.557 162.111,-43.282 225.495,-44.255 59.995,-1.569 84.414,12.398 86.501,18.644 6.936,20.652 -77.038,105.081 -264.148,167.948 C 149.227,-16.729 69.144,-1.004 5.76,-0.031 3.798,0 1.883,0 0,0 m 414.833,-295.188 c -2.275,0 -4.566,0 -6.905,0.063 -69.834,1.066 -156.837,17.953 -244.986,47.55 -168.089,56.464 -335.111,158.595 -304.604,249.364 9.855,29.378 44.145,65.409 148.394,62.427 69.835,-1.067 156.838,-17.952 244.986,-47.55 168.09,-56.464 335.113,-158.595 304.605,-249.364 -9.636,-28.719 -42.12,-62.49 -141.49,-62.49"
             style="fill:#433c35;fill-opacity:1;fill-rule:nonzero;stroke:none"
             id="path106" />
        </g>
        <g
           id="g108"
           transform="translate(2403.4377,2891.6843)">
          <path
             d="m 0,0 c -55.554,0 -78.717,-12.648 -80.741,-18.675 -6.937,-20.683 77.021,-105.113 264.147,-167.979 82.028,-27.557 162.111,-43.282 225.495,-44.223 59.759,-1.476 84.413,12.397 86.5,18.643 6.937,20.652 -77.037,105.081 -264.147,167.948 C 149.227,-16.729 69.144,-1.004 5.76,-0.031 3.798,0 1.883,0 0,0 m 414.786,-295.22 c -2.26,0 -4.535,0.032 -6.858,0.063 -69.834,1.067 -156.853,17.953 -244.986,47.551 -168.089,56.463 -335.112,158.594 -304.604,249.395 9.855,29.378 44.317,64.781 148.394,62.427 69.834,-1.067 156.837,-17.952 244.986,-47.55 168.09,-56.464 335.112,-158.595 304.604,-249.364 -9.635,-28.719 -42.135,-62.522 -141.536,-62.522"
             style="fill:#433c35;fill-opacity:1;fill-rule:nonzero;stroke:none"
             id="path110" />
        </g>
        <g
           id="g112"
           transform="translate(1808.1174,31.7625)">
          <path
             d="m 0,0 c -10.326,0 -20.479,4.96 -26.694,14.188 -9.902,14.719 -6.011,34.681 8.71,44.599 1.993,1.35 201.092,135.526 264.555,182.763 36.832,27.368 54.989,75.012 47.378,124.29 -90.55,586.61 -497.442,817.582 -822.84,908.037 -194.516,54.11 -380.794,27.494 -524.559,-74.856 -59.76,-42.56 -241.989,-167.101 -243.825,-168.357 -14.626,-9.98 -34.635,-6.214 -44.663,8.412 -10.012,14.657 -6.246,34.651 8.412,44.695 1.82,1.223 183.531,125.387 242.789,167.602 159.866,113.838 365.478,143.844 579.077,84.461 C -168.042,1240.294 261.699,996.14 357.475,375.632 368.727,302.753 340.935,231.601 284.925,189.95 220.27,141.866 26.161,11.017 17.922,5.493 12.414,1.789 6.167,0 0,0"
             style="fill:#433c35;fill-opacity:1;fill-rule:nonzero;stroke:none"
             id="path114" />
        </g>
        <g
           id="g116"
           transform="translate(822.4149,1153.447)">
          <path
             d="m 0,0 c -114.466,0 -220.521,-30.131 -309.375,-89.325 -137.786,-91.774 -224.004,-247.293 -249.317,-449.766 -7.706,-61.611 30.381,-119.77 90.581,-138.288 l 1319.763,-405.92 c 43.69,-13.433 88.493,-4.08 122.924,25.706 34.871,30.131 51.443,75.61 44.334,121.685 C 928.36,-349.267 521.452,-118.295 196.054,-27.84 129.139,-9.228 63.274,0 0,0 m 890.351,-1153.447 c -19.192,0 -38.589,2.856 -57.594,8.694 l -1319.779,405.919 c -90.079,27.746 -147.029,115.094 -135.447,207.715 27.698,221.556 123.646,392.831 277.47,495.307 153.73,102.414 352.014,127.209 558.285,69.929 343.632,-95.54 773.358,-339.694 869.149,-960.233 10.515,-68.076 -14.092,-135.401 -65.817,-180.126 -35.796,-30.915 -80.49,-47.205 -126.267,-47.205"
             style="fill:#433c35;fill-opacity:1;fill-rule:nonzero;stroke:none"
             id="path118" />
        </g>
        <g
           id="g120"
           transform="translate(1326.1492,360.5037)">
          <path
             d="m 0,0 c -186.325,0 -506.214,121.339 -635.149,178.273 -112.614,49.748 -107.514,110.166 -100.107,133.8 21.704,69.207 135.228,102.477 264.116,77.431 17.419,-3.39 28.797,-20.244 25.407,-37.664 -3.374,-17.419 -20.15,-28.938 -37.679,-25.423 -109.727,21.249 -183.421,-11.017 -190.499,-33.552 -3.013,-9.604 11.738,-32.39 64.718,-55.773 223.44,-98.679 582.923,-209.944 676.705,-162.048 10.577,5.398 13.057,11.08 14.092,15.944 9.73,45.385 -55.852,197.389 -215.921,326.105 -140.8,113.21 -440.398,274.221 -865.102,80.725 -16.163,-7.376 -35.215,-0.251 -42.575,15.945 -7.36,16.132 -0.22,35.183 15.928,42.559 456.044,207.746 779.699,33.395 932.033,-89.137 C 75.625,330.78 161.859,158.688 144.471,77.492 138.9,51.536 122.391,30.884 96.733,17.796 72.393,5.366 39.123,0.031 0,0"
             style="fill:#433c35;fill-opacity:1;fill-rule:nonzero;stroke:none"
             id="path122" />
        </g>
      </g>
    </g>
  </g>
</svg>
